<svg xmlns="http://www.w3.org/2000/svg" viewBox="0 0 118.54 110.9">
  <defs>
    <style>.cls-1{isolation:isolate;}.cls-2{fill:#fff;}.cls-3{fill:#03336e;}.cls-4{fill:#f7c7ff;}.cls-5,.cls-7{fill:#9388fd;}.cls-6{fill:none;}.cls-6,.cls-7{stroke:#03336e;stroke-linejoin:round;stroke-width:0.75px;}.cls-8{mix-blend-mode:multiply;}</style>
  </defs>
  <g class="cls-1">
    <g id="Capa_2" data-name="Capa 2">
      <g id="Layer_1" data-name="Layer 1">
        <path class="cls-2" d="M33.13,38.57H.29L3.57,54.3h0s0,.07,0,.1c0,4.23,5.88,7.65,13.14,7.65s13.14-3.42,13.14-7.65c0,0,0-.07,0-.1h0Z"/>
        <path class="cls-3" d="M16.71,62.34c-7.4,0-13.43-3.56-13.43-7.94v-.06L0,38.63a.3.3,0,0,1,0-.24.33.33,0,0,1,.23-.1H33.13a.33.33,0,0,1,.23.1.3.3,0,0,1,0,.24L30.13,54.34v.06C30.14,58.78,24.11,62.34,16.71,62.34ZM3.58,54.4h.28c0,4.06,5.76,7.37,12.85,7.37s12.85-3.31,12.85-7.37a.55.55,0,0,1,0-.16h0l3.21-15.38H.64L3.84,54.2a.18.18,0,0,1,0,.1Z"/>
        <ellipse class="cls-2" cx="16.71" cy="37.91" rx="16.42" ry="9.56"/>
        <path class="cls-3" d="M16.71,47.76C7.5,47.76,0,43.35,0,37.91s7.5-9.85,16.71-9.85,16.71,4.42,16.71,9.85S25.92,47.76,16.71,47.76Zm0-19.12C7.81,28.64.57,32.8.57,37.91s7.24,9.28,16.14,9.28S32.85,43,32.85,37.91,25.61,28.64,16.71,28.64Z"/>
        <ellipse class="cls-2" cx="16.71" cy="37.91" rx="13.1" ry="7.63"/>
        <path class="cls-3" d="M16.71,45.83c-7.38,0-13.39-3.55-13.39-7.92S9.33,30,16.71,30,30.1,33.55,30.1,37.91,24.09,45.83,16.71,45.83Zm0-15.26c-7.07,0-12.82,3.29-12.82,7.34s5.75,7.35,12.82,7.35S29.53,42,29.53,37.91,23.78,30.57,16.71,30.57Z"/>
        <ellipse class="cls-4" cx="16.71" cy="39.25" rx="12.89" ry="6.29"/>
        <path class="cls-3" d="M16.71,45.83c-6.48,0-12-2.73-13.16-6.5a.22.22,0,0,1,0-.16c1.14-3.77,6.68-6.5,13.16-6.5s12,2.73,13.16,6.5a.22.22,0,0,1,0,.16C28.73,43.1,23.19,45.83,16.71,45.83ZM4.12,39.25c1.13,3.49,6.4,6,12.59,6s11.46-2.52,12.59-6c-1.13-3.49-6.4-6-12.59-6S5.25,35.76,4.12,39.25Z"/>
        <path class="cls-5" d="M28.42,21.69s-2.43,6.36-6,7.44a5.15,5.15,0,0,1,2.17-3.07,15.22,15.22,0,0,0-5,1.26,39.58,39.58,0,0,0-4-8.34,40.73,40.73,0,0,1-.82,10.09A31.85,31.85,0,0,1,11.89,24a34.27,34.27,0,0,0-.05,5.09,39.81,39.81,0,0,1-5.43-7.63,36.68,36.68,0,0,0,1.74,12,10.88,10.88,0,0,1-1.52-1.73S5.49,38.44,10,41.05c3.65,2.1,6.37,1.8,7.29,1.61,1.58.41,4.25.37,7.21-2.77C29.25,34.87,28.42,21.69,28.42,21.69Z"/>
        <path class="cls-6" d="M28.42,21.69s-2.43,6.36-6,7.44a5.15,5.15,0,0,1,2.17-3.07,15.22,15.22,0,0,0-5,1.26,39.58,39.58,0,0,0-4-8.34,40.73,40.73,0,0,1-.82,10.09A31.85,31.85,0,0,1,11.89,24a34.27,34.27,0,0,0-.05,5.09,39.81,39.81,0,0,1-5.43-7.63,36.68,36.68,0,0,0,1.74,12,10.88,10.88,0,0,1-1.52-1.73S5.49,38.44,10,41.05c3.65,2.1,6.37,1.8,7.29,1.61,1.58.41,4.25.37,7.21-2.77C29.25,34.87,28.42,21.69,28.42,21.69Z"/>
        <path class="cls-4" d="M55.08,109.73l61.48-35.62c2.69-1.55,2.73-2.35-.37-4.14L73.42,45.38c-3.1-1.79-3.82-1.63-6.51-.08L5.7,80.7c-2.69,1.55-2.35,3,.75,4.82l41.65,24C51.2,111.36,52.39,111.28,55.08,109.73Z"/>
        <path class="cls-7" d="M55,108.41,81.16,91.66l1.41.09a3.33,3.33,0,0,0,1.88-.44l1.8-1a3.28,3.28,0,0,0,1.06-1l1.42-2L116,73.1c2.67-1.53,2.71-2.33-.37-4.1L73.2,44.62c-3.07-1.77-3.79-1.61-6.45-.08L6.07,79.63c-2.66,1.54-2.33,3,.75,4.78L48.1,108.25C51.17,110,52.36,109.94,55,108.41Z"/>
        <path class="cls-3" d="M51.75,109.86h0A7.72,7.72,0,0,1,48,108.5L6.67,84.66C4.84,83.6,4,82.67,4,81.72s.63-1.58,1.94-2.34L66.61,44.29a6.81,6.81,0,0,1,3.24-1.24,7.48,7.48,0,0,1,3.5,1.32l42.39,24.38c1.78,1,2.48,1.72,2.48,2.44s-.85,1.43-2.11,2.16L88.93,87.48l-1.39,2a3.69,3.69,0,0,1-1.14,1.05l-1.8,1a3.58,3.58,0,0,1-2,.48L81.24,92l-26.07,16.7A6.85,6.85,0,0,1,51.75,109.86Zm18.1-66.23a6.19,6.19,0,0,0-2.95,1.16L6.22,79.88c-1.1.63-1.66,1.25-1.66,1.84s.81,1.52,2.4,2.44L48.24,108a7.23,7.23,0,0,0,3.51,1.28h0a6.45,6.45,0,0,0,3.13-1.12L81,91.42a.22.22,0,0,1,.17,0l1.41.09a3,3,0,0,0,1.72-.4l1.8-1a3,3,0,0,0,1-.88l1.43-2a.22.22,0,0,1,.1-.09l27.23-14.16c1.25-.72,1.81-1.24,1.81-1.66s-.67-1.07-2.19-1.94L73.06,44.87A6.7,6.7,0,0,0,69.85,43.63Z"/>
        <path class="cls-2" d="M84.37,88.68l.92-.65a101.52,101.52,0,0,1,10.93-6.9l20.67-11.26L70.33,43,37.81,61.84Z"/>
        <path class="cls-3" d="M84.38,89a.28.28,0,0,1-.15,0L37.67,62.09a.29.29,0,0,1,0-.5L70.18,42.77a.3.3,0,0,1,.29,0L117,69.62a.29.29,0,0,1,.15.25.32.32,0,0,1-.15.25L96.36,81.39a103,103,0,0,0-10.91,6.87l-.91.66A.33.33,0,0,1,84.38,89Zm-46-27.13,46,26.5.76-.55a103,103,0,0,1,11-6.91l20.22-11-46-26.51Z"/>
        <polygon class="cls-2" points="51.78 107.5 84.33 88.69 37.77 61.85 5.26 80.27 5.26 80.68 51.78 107.5"/>
        <path class="cls-3" d="M51.78,107.79a.23.23,0,0,1-.14,0L5.12,80.93A.31.31,0,0,1,5,80.68v-.41A.29.29,0,0,1,5.12,80L37.63,61.6a.28.28,0,0,1,.28,0L84.47,88.45a.27.27,0,0,1,.14.24.27.27,0,0,1-.14.25L51.93,107.75A.28.28,0,0,1,51.78,107.79ZM5.55,80.51l46.23,26.66,32-18.48-46-26.51L5.55,80.44Z"/>
        <path class="cls-2" d="M51.78,105l11.33-7.15a73.19,73.19,0,0,1,19-8.5l2.17-.62L37.77,61.85,5.22,78.11Z"/>
        <path class="cls-3" d="M51.78,105.24a.32.32,0,0,1-.14,0L5.08,78.36a.28.28,0,0,1,0-.5L37.64,61.59a.29.29,0,0,1,.27,0L84.47,88.45a.26.26,0,0,1,.14.28.28.28,0,0,1-.2.24l-2.17.62a73,73,0,0,0-19,8.46L51.93,105.2A.26.26,0,0,1,51.78,105.24ZM5.83,78.13l45.94,26.49L63,97.57A73.27,73.27,0,0,1,82.08,89l1.52-.43L37.76,62.17Z"/>
        <path class="cls-2" d="M52.63,103.12,64.68,94a25.5,25.5,0,0,1,16.84-5.42l2.81.11L37.77,61.85h0a25.55,25.55,0,0,0-18.79,5L6.07,76.27Z"/>
        <path class="cls-3" d="M52.63,103.4a.32.32,0,0,1-.14,0L5.93,76.52a.3.3,0,0,1-.15-.23A.3.3,0,0,1,5.9,76l12.91-9.45a26.17,26.17,0,0,1,19-5l.11,0L84.47,88.45a.26.26,0,0,1,.13.32.27.27,0,0,1-.28.21l-2.81-.12a25.4,25.4,0,0,0-16.66,5.36l-12,9.12A.27.27,0,0,1,52.63,103.4Zm-46-27.16,46,26.53,11.89-9a26,26,0,0,1,17-5.48l1.64.07L37.67,62.13a25.52,25.52,0,0,0-18.52,4.92Z"/>
        <g class="cls-8">
          <path class="cls-3" d="M13.09,77.13a.28.28,0,0,1-.23-.11.28.28,0,0,1,.06-.4l9.63-7.05a22.87,22.87,0,0,1,16.23-4.48.27.27,0,0,1,.25.31.28.28,0,0,1-.31.26A22.32,22.32,0,0,0,22.89,70l-9.63,7A.26.26,0,0,1,13.09,77.13Z"/>
        </g>
        <g class="cls-8">
          <path class="cls-3" d="M15.75,78.65a.27.27,0,0,1-.23-.12.28.28,0,0,1,.06-.4l9.63-7A22.93,22.93,0,0,1,41.44,66.6a.28.28,0,0,1,.25.32.27.27,0,0,1-.31.25,22.75,22.75,0,0,0-15.83,4.38l-9.63,7A.34.34,0,0,1,15.75,78.65Z"/>
        </g>
        <g class="cls-8">
          <path class="cls-3" d="M18.41,80.17a.27.27,0,0,1-.23-.12.28.28,0,0,1,.06-.4l9.63-7A22.93,22.93,0,0,1,44.1,68.12a.28.28,0,0,1,.25.32.27.27,0,0,1-.31.25,22.7,22.7,0,0,0-15.83,4.38l-9.63,7A.27.27,0,0,1,18.41,80.17Z"/>
        </g>
        <g class="cls-8">
          <path class="cls-3" d="M21.07,81.69a.27.27,0,0,1-.23-.12.28.28,0,0,1,.06-.4l9.63-7a22.88,22.88,0,0,1,16.23-4.49A.28.28,0,0,1,47,70a.28.28,0,0,1-.31.25,22.65,22.65,0,0,0-15.83,4.38l-9.63,7A.27.27,0,0,1,21.07,81.69Z"/>
        </g>
        <g class="cls-8">
          <path class="cls-3" d="M23.73,83.2a.28.28,0,0,1-.23-.11.28.28,0,0,1,.06-.4l9.63-7a22.87,22.87,0,0,1,16.23-4.48.27.27,0,0,1,.25.31.28.28,0,0,1-.31.26A22.69,22.69,0,0,0,33.53,76.1L23.9,83.15A.26.26,0,0,1,23.73,83.2Z"/>
        </g>
        <g class="cls-8">
          <path class="cls-3" d="M26.39,84.72a.27.27,0,0,1-.23-.12.28.28,0,0,1,.06-.4l9.63-7a22.93,22.93,0,0,1,16.23-4.49.28.28,0,0,1,.25.32.27.27,0,0,1-.31.25,22.7,22.7,0,0,0-15.83,4.38l-9.63,7A.34.34,0,0,1,26.39,84.72Z"/>
        </g>
        <g class="cls-8">
          <path class="cls-3" d="M29.05,86.24a.27.27,0,0,1-.23-.12.28.28,0,0,1,.06-.4l9.63-7a22.93,22.93,0,0,1,16.23-4.49.28.28,0,0,1,.25.32.27.27,0,0,1-.31.25,22.65,22.65,0,0,0-15.83,4.38l-9.63,7A.27.27,0,0,1,29.05,86.24Z"/>
        </g>
        <g class="cls-8">
          <path class="cls-3" d="M31.71,87.76a.27.27,0,0,1-.23-.12.28.28,0,0,1,.06-.4l9.63-7A22.88,22.88,0,0,1,57.4,75.71a.28.28,0,0,1,.25.32.28.28,0,0,1-.31.25,22.6,22.6,0,0,0-15.83,4.38l-9.63,7A.27.27,0,0,1,31.71,87.76Z"/>
        </g>
        <g class="cls-8">
          <path class="cls-3" d="M34.37,89.27a.28.28,0,0,1-.23-.11.28.28,0,0,1,.06-.4l9.63-7.05a22.87,22.87,0,0,1,16.23-4.48.27.27,0,0,1,.25.31.28.28,0,0,1-.31.26,22.64,22.64,0,0,0-15.83,4.37l-9.63,7A.26.26,0,0,1,34.37,89.27Z"/>
        </g>
        <g class="cls-8">
          <path class="cls-3" d="M37,90.79a.27.27,0,0,1-.23-.12.28.28,0,0,1,.06-.4l9.63-7a22.93,22.93,0,0,1,16.23-4.49.28.28,0,0,1,.25.32.27.27,0,0,1-.31.25,22.65,22.65,0,0,0-15.83,4.38l-9.63,7A.34.34,0,0,1,37,90.79Z"/>
        </g>
        <g class="cls-8">
          <path class="cls-3" d="M39.69,92.31a.27.27,0,0,1-.23-.12.28.28,0,0,1,.06-.4l9.63-7a22.93,22.93,0,0,1,16.23-4.49.28.28,0,0,1,.25.32.27.27,0,0,1-.31.25,22.6,22.6,0,0,0-15.83,4.38l-9.63,7A.27.27,0,0,1,39.69,92.31Z"/>
        </g>
        <g class="cls-8">
          <path class="cls-3" d="M42.35,93.83a.27.27,0,0,1-.23-.12.28.28,0,0,1,.06-.4l9.63-7A22.88,22.88,0,0,1,68,81.78a.28.28,0,0,1,.25.32.28.28,0,0,1-.31.25,22.55,22.55,0,0,0-15.83,4.38l-9.63,7A.27.27,0,0,1,42.35,93.83Z"/>
        </g>
        <g class="cls-8">
          <path class="cls-3" d="M45,95.34a.28.28,0,0,1-.23-.11.28.28,0,0,1,.06-.4l9.63-7A22.87,22.87,0,0,1,70.7,83.3a.28.28,0,0,1,.25.31.28.28,0,0,1-.31.26,22.59,22.59,0,0,0-15.83,4.37l-9.63,7.05A.26.26,0,0,1,45,95.34Z"/>
        </g>
        <g class="cls-8">
          <path class="cls-3" d="M47.67,96.86a.27.27,0,0,1-.23-.12.28.28,0,0,1,.06-.4l9.63-7a22.93,22.93,0,0,1,16.23-4.49.29.29,0,0,1-.06.58,22.32,22.32,0,0,0-15.83,4.37l-9.63,7A.34.34,0,0,1,47.67,96.86Z"/>
        </g>
        <path class="cls-2" d="M68.77,41.68l-4.3,1.2a49,49,0,0,0-26.8,19h0l46.56,26.8.42-.58a49,49,0,0,1,26.74-18.5l3.94-1.08Z"/>
        <path class="cls-3" d="M84.23,88.93a.23.23,0,0,1-.14,0L37.53,62.09a.3.3,0,0,1-.14-.19.31.31,0,0,1,0-.23,49.51,49.51,0,0,1,27-19.06l4.3-1.21a.28.28,0,0,1,.22,0l46.56,26.8a.31.31,0,0,1,.15.29.29.29,0,0,1-.21.23l-4,1.08a48.93,48.93,0,0,0-26.58,18.4l-.42.58A.27.27,0,0,1,84.23,88.93ZM38.08,61.75,84.15,88.27l.27-.38a49.45,49.45,0,0,1,26.89-18.61l3.28-.9L68.73,42l-4.18,1.18A48.87,48.87,0,0,0,38.08,61.75Z"/>
        <g class="cls-8">
          <path class="cls-3" d="M44.06,62.24a.28.28,0,0,1-.18-.06.29.29,0,0,1-.05-.4A45.47,45.47,0,0,1,67,46.37l3.2-.9a.3.3,0,0,1,.36.2.29.29,0,0,1-.2.35l-3.21.9A44.87,44.87,0,0,0,44.28,62.14.27.27,0,0,1,44.06,62.24Z"/>
        </g>
        <g class="cls-8">
          <path class="cls-3" d="M46.7,63.76a.32.32,0,0,1-.18-.06.29.29,0,0,1,0-.4A45.4,45.4,0,0,1,69.6,47.89l3.21-.9a.29.29,0,0,1,.35.2.28.28,0,0,1-.2.35l-3.2.9A44.83,44.83,0,0,0,46.93,63.66.29.29,0,0,1,46.7,63.76Z"/>
        </g>
        <g class="cls-8">
          <path class="cls-3" d="M49.35,65.29a.26.26,0,0,1-.18-.07.3.3,0,0,1-.05-.4A45.47,45.47,0,0,1,72.25,49.41l3.2-.9a.3.3,0,0,1,.36.2.29.29,0,0,1-.2.35L72.4,50A44.79,44.79,0,0,0,49.57,65.18.28.28,0,0,1,49.35,65.29Z"/>
        </g>
        <g class="cls-8">
          <path class="cls-3" d="M52,66.81a.23.23,0,0,1-.17-.07.28.28,0,0,1,0-.4A45.44,45.44,0,0,1,74.89,50.93L78.1,50a.28.28,0,0,1,.35.2.29.29,0,0,1-.2.36l-3.2.9A44.79,44.79,0,0,0,52.22,66.7.3.3,0,0,1,52,66.81Z"/>
        </g>
        <g class="cls-8">
          <path class="cls-3" d="M54.64,68.33a.26.26,0,0,1-.18-.07.28.28,0,0,1,0-.4A45.4,45.4,0,0,1,77.54,52.45l3.2-.9a.29.29,0,0,1,.36.2.3.3,0,0,1-.2.36l-3.2.9A44.78,44.78,0,0,0,54.86,68.22.28.28,0,0,1,54.64,68.33Z"/>
        </g>
        <g class="cls-8">
          <path class="cls-3" d="M57.29,69.85a.24.24,0,0,1-.18-.07.28.28,0,0,1,0-.4A45.42,45.42,0,0,1,80.19,54l3.2-.9a.28.28,0,0,1,.35.2.29.29,0,0,1-.19.36l-3.21.9A44.79,44.79,0,0,0,57.51,69.74.29.29,0,0,1,57.29,69.85Z"/>
        </g>
        <g class="cls-8">
          <path class="cls-3" d="M59.93,71.37a.27.27,0,0,1-.18-.07.28.28,0,0,1,0-.4A45.4,45.4,0,0,1,82.83,55.49l3.21-.9a.29.29,0,0,1,.35.2.3.3,0,0,1-.2.36l-3.2.9A44.75,44.75,0,0,0,60.16,71.26.3.3,0,0,1,59.93,71.37Z"/>
        </g>
        <g class="cls-8">
          <path class="cls-3" d="M62.58,72.89a.28.28,0,0,1-.18-.06.3.3,0,0,1,0-.41A45.47,45.47,0,0,1,85.48,57l3.2-.9a.29.29,0,0,1,.16.56l-3.21.9A44.79,44.79,0,0,0,62.8,72.78.28.28,0,0,1,62.58,72.89Z"/>
        </g>
        <g class="cls-8">
          <path class="cls-3" d="M65.22,74.41a.27.27,0,0,1-.17-.06.29.29,0,0,1,0-.41,45.32,45.32,0,0,1,23.12-15.4l3.21-.91a.29.29,0,0,1,.15.56l-3.2.9A44.79,44.79,0,0,0,65.45,74.3.3.3,0,0,1,65.22,74.41Z"/>
        </g>
        <g class="cls-8">
          <path class="cls-3" d="M67.87,75.93a.3.3,0,0,1-.18-.06.31.31,0,0,1,0-.41,45.39,45.39,0,0,1,23.13-15.4l3.2-.9a.28.28,0,0,1,.36.19.3.3,0,0,1-.2.36l-3.21.9A44.79,44.79,0,0,0,68.09,75.82.28.28,0,0,1,67.87,75.93Z"/>
        </g>
        <g class="cls-8">
          <path class="cls-3" d="M70.51,77.45a.27.27,0,0,1-.17-.06.29.29,0,0,1,0-.41,45.34,45.34,0,0,1,23.13-15.4l3.2-.9a.28.28,0,0,1,.35.19.28.28,0,0,1-.19.36l-3.21.9A44.79,44.79,0,0,0,70.74,77.34.3.3,0,0,1,70.51,77.45Z"/>
        </g>
        <g class="cls-8">
          <path class="cls-3" d="M73.16,79a.32.32,0,0,1-.18-.06.3.3,0,0,1,0-.41A45.32,45.32,0,0,1,96.06,63.1l3.21-.9a.28.28,0,0,1,.35.19.29.29,0,0,1-.2.36l-3.2.9A44.71,44.71,0,0,0,73.39,78.86.31.31,0,0,1,73.16,79Z"/>
        </g>
        <g class="cls-8">
          <path class="cls-3" d="M75.81,80.49a.28.28,0,0,1-.18-.06.29.29,0,0,1,0-.41,45.39,45.39,0,0,1,23.13-15.4l3.2-.9a.28.28,0,0,1,.35.19.28.28,0,0,1-.19.36l-3.21.9A44.85,44.85,0,0,0,76,80.38.29.29,0,0,1,75.81,80.49Z"/>
        </g>
        <g class="cls-8">
          <path class="cls-3" d="M78.45,82a.32.32,0,0,1-.18-.06.29.29,0,0,1,0-.4,45.34,45.34,0,0,1,23.12-15.41l3.21-.9a.28.28,0,0,1,.35.2.29.29,0,0,1-.2.35l-3.2.9A44.81,44.81,0,0,0,78.68,81.9.3.3,0,0,1,78.45,82Z"/>
        </g>
        <path class="cls-4" d="M92.19,41.8c1.27-.73,1.28-1.93,0-2.65l-10.44-6a7.1,7.1,0,0,0-6.41,0c-1.77,1-1.78,2.68,0,3.7l9.33,5.39a.77.77,0,0,0,.71,0c.2-.11.2-.29,0-.41L76,36.42c-1.37-.79-1.36-2.09,0-2.88a5.52,5.52,0,0,1,5,0l10.44,6c.87.5.87,1.32,0,1.83a3.51,3.51,0,0,1-3.17,0l-10-5.78a.44.44,0,0,1,0-.83,1.59,1.59,0,0,1,1.44,0l8.33,4.81a.06.06,0,0,1,0,.1.25.25,0,0,1-.17,0l-6.12-3.54a.77.77,0,0,0-.71,0,.22.22,0,0,0,0,.41l6.13,3.54a1.73,1.73,0,0,0,1.58,0,.48.48,0,0,0,0-.91l-8.33-4.81a3.2,3.2,0,0,0-2.86,0,.87.87,0,0,0,0,1.65l10,5.78A5.1,5.1,0,0,0,92.19,41.8Z"/>
        <path class="cls-4" d="M100.8,44.42c-1.65.25-3.54-.25-4.2-1.13L91.11,36c-.92-1.23.2-2.51,2.51-2.87s4.94.35,5.86,1.57l4.9,6.48c.1.14,0,.28-.28.32a.78.78,0,0,1-.65-.17l-4.9-6.48c-.72-1-2.76-1.51-4.56-1.23S91.32,34.94,92,35.89l5.49,7.26a3.4,3.4,0,0,0,2.9.78c1.14-.18,1.7-.82,1.24-1.42l-5.25-6.95a1.52,1.52,0,0,0-1.32-.35c-.51.08-.76.36-.56.64l4.38,5.79a.18.18,0,0,0,.15,0c.06,0,.09,0,.06-.08l-3.22-4.25c-.1-.14,0-.28.28-.32a.76.76,0,0,1,.65.17l3.22,4.26c.23.3,0,.62-.62.71A1.68,1.68,0,0,1,98,41.78L93.62,36c-.42-.54.09-1.12,1.11-1.28a3,3,0,0,1,2.61.71l5.26,6.94C103.26,43.24,102.46,44.16,100.8,44.42Z"/>
        <path class="cls-4" d="M40.32,1.56A20,20,0,0,1,48.12,11a21.81,21.81,0,0,0,2.59-.88c1.62-.66,3.72-.41,6,.92C61.84,14,66,21.14,66,27c0,10.72-18.37,14.44-18.37,14.44S30.16,18.1,30.16,7.38c0-2.93-1.25-3.83.42-4.79L34.2.67C35.83,0,38,.2,40.32,1.56Z"/>
        <path class="cls-3" d="M47.62,41.74a.31.31,0,0,1-.23-.12c-.71-.95-17.52-23.54-17.52-34.24A11.11,11.11,0,0,0,29.58,5c-.22-1.1-.39-1.9.86-2.61,0,0,3.45-1.85,3.65-1.93,1.77-.77,4-.45,6.37.9a20.26,20.26,0,0,1,7.84,9.35c.45-.13,1.68-.57,2.3-.82,1.76-.71,4-.38,6.27.94,5.18,3,9.4,10.27,9.4,16.23,0,10.83-17.83,14.57-18.59,14.72ZM36.16.57a4.58,4.58,0,0,0-1.84.36c-.17.08-3.44,1.82-3.6,1.91-.88.5-.8.91-.58,2a11.22,11.22,0,0,1,.3,2.54c0,10.07,15.82,31.75,17.3,33.75,1.88-.42,18-4.31,18-14.12,0-5.77-4.09-12.83-9.12-15.73-2.13-1.23-4.17-1.55-5.76-.91a21.82,21.82,0,0,1-2.68.91.31.31,0,0,1-.28-.18,19.63,19.63,0,0,0-7.69-9.29A8.14,8.14,0,0,0,36.16.57Z"/>
        <path class="cls-2" d="M37.22,3.23c3.57,2.05,6.66,6.15,8.21,10.44,1.54-2.5,4.63-3,8.2-1,5.12,3,9.26,10.1,9.26,16,0,10.73-17.46,13.91-17.46,13.91S28,19.24,28,8.51C28,2.64,32.11.27,37.22,3.23Z"/>
        <path class="cls-3" d="M45.43,42.87a.29.29,0,0,1-.23-.12c-.72-1-17.53-23.54-17.53-34.24,0-4.16,2.12-6.84,5.4-6.84A8.71,8.71,0,0,1,37.37,3,20.53,20.53,0,0,1,45.5,13.05a4.91,4.91,0,0,1,4-1.91,8.62,8.62,0,0,1,4.29,1.31c5.19,3,9.41,10.27,9.41,16.22,0,10.85-17,14.06-17.7,14.19ZM33.07,2.24c-3,0-4.82,2.4-4.82,6.27,0,10.07,15.83,31.77,17.3,33.75,1.81-.37,17.06-3.79,17.06-13.59,0-5.77-4.1-12.82-9.12-15.72a8.12,8.12,0,0,0-4-1.23,4.27,4.27,0,0,0-3.81,2.1.29.29,0,0,1-.27.13.27.27,0,0,1-.24-.19A20.1,20.1,0,0,0,37.08,3.47,8.22,8.22,0,0,0,33.07,2.24Z"/>
      </g>
    </g>
  </g>
</svg>