<svg xmlns="http://www.w3.org/2000/svg" viewBox="0 0 91.39 100.12"><defs><style>.cls-1{fill:#913738;}.cls-2{fill:#d94549;}.cls-3,.cls-9{fill:#03336e;}.cls-4{fill:#f56568;}.cls-5{fill:#fffeff;}.cls-6{fill:#f46367;}.cls-7{fill:#fff;}.cls-8{fill:#d1ebff;}.cls-9{stroke:#03336e;stroke-linecap:round;stroke-miterlimit:10;}</style></defs><g id="Capa_2" data-name="Capa 2"><g id="Layer_1" data-name="Layer 1"><ellipse class="cls-1" cx="70.44" cy="83.83" rx="20.96" ry="8.72"/><path class="cls-2" d="M56.39,26.62c-6.73-3.88-12.86-4.47-17.46-2.29l-3.7,2.1v0c4.59-2.14,10.69-1.53,17.38,2.33C66.89,37,78.47,57,78.47,73.38c0,8-2.73,13.6-7.17,16.37l2.48-1.45c5.2-2.43,8.47-8.37,8.47-17.08C82.25,54.84,70.67,34.87,56.39,26.62Z"/><path class="cls-3" d="M71.07,89.88a.27.27,0,0,1,.09-.36c4.54-2.82,7-8.56,7-16.14C78.2,57.1,66.66,37.2,52.48,29A23.25,23.25,0,0,0,41,25.49a13.23,13.23,0,0,0-5.66,1.2.28.28,0,0,1-.25,0,.29.29,0,0,1-.12-.23.28.28,0,0,1,.13-.23l3.72-2.11a13.84,13.84,0,0,1,6-1.28A23.75,23.75,0,0,1,56.53,26.4c14.33,8.27,26,28.38,26,44.82,0,8.45-3.15,14.76-8.61,17.3L71.43,90a.22.22,0,0,1-.13,0A.28.28,0,0,1,71.07,89.88Zm-32-65.32-1.35.77A14.74,14.74,0,0,1,41,25a23.7,23.7,0,0,1,11.74,3.58c14.33,8.28,26,28.39,26,44.83,0,6.25-1.68,11.29-4.78,14.54,5.11-2.54,8-8.61,8-16.7C82,55,70.45,35,56.26,26.85a23.22,23.22,0,0,0-11.47-3.51A13.28,13.28,0,0,0,39.06,24.56Z"/><ellipse class="cls-4" cx="52.61" cy="58.45" rx="21.05" ry="36.45" transform="translate(-22.31 34.54) rotate(-30.31)"/><path class="cls-3" d="M52.48,88.35c-14.33-8.27-26-28.38-26-44.83C26.49,32.08,32.05,25,41,25a23.7,23.7,0,0,1,11.74,3.58c14.33,8.28,26,28.39,26,44.83,0,11.45-5.56,18.56-14.51,18.56h0A23.72,23.72,0,0,1,52.48,88.35ZM27,43.52C27,59.8,38.56,79.7,52.74,87.89a23.14,23.14,0,0,0,11.47,3.52h0c8.62,0,14-6.91,14-18C78.2,57.1,66.66,37.2,52.48,29A23.25,23.25,0,0,0,41,25.49C32.38,25.49,27,32.4,27,43.52Z"/><ellipse class="cls-5" cx="52.61" cy="58.45" rx="17.04" ry="29.51" transform="translate(-22.31 34.54) rotate(-30.31)"/><path class="cls-3" d="M52.48,82.7C40.86,76,31.41,59.69,31.41,46.37c0-9.3,4.53-15.08,11.8-15.08a19.25,19.25,0,0,1,9.53,2.91c11.62,6.71,21.07,23,21.07,36.34,0,9.29-4.53,15.07-11.8,15.07h0A19.25,19.25,0,0,1,52.48,82.7ZM31.94,46.37c0,13.16,9.33,29.25,20.8,35.87A18.67,18.67,0,0,0,62,85.08h0c6.95,0,11.27-5.57,11.27-14.54,0-13.16-9.33-29.26-20.8-35.88a18.81,18.81,0,0,0-9.27-2.84C36.26,31.82,31.94,37.4,31.94,46.37Z"/><ellipse class="cls-6" cx="52.61" cy="58.45" rx="13.81" ry="23.92" transform="translate(-22.31 34.54) rotate(-30.31)"/><path class="cls-3" d="M52.48,78.15c-9.43-5.44-17.1-18.67-17.1-29.49,0-7.57,3.68-12.27,9.61-12.27a15.65,15.65,0,0,1,7.75,2.37c9.43,5.44,17.1,18.67,17.1,29.49,0,7.56-3.68,12.26-9.61,12.26h0A15.63,15.63,0,0,1,52.48,78.15ZM35.91,48.66c0,10.65,7.55,23.67,16.83,29A15.2,15.2,0,0,0,60.22,80h0c5.6,0,9.08-4.5,9.08-11.74,0-10.65-7.55-23.68-16.83-29A15.19,15.19,0,0,0,45,36.92C39.39,36.92,35.91,41.42,35.91,48.66Z"/><ellipse class="cls-7" cx="52.61" cy="58.45" rx="10.76" ry="18.64" transform="matrix(0.86, -0.5, 0.5, 0.86, -22.31, 34.54)"/><path class="cls-3" d="M52.48,73.85c-7.36-4.25-13.35-14.58-13.35-23,0-5.93,2.89-9.62,7.55-9.62a12.35,12.35,0,0,1,6.06,1.85c7.36,4.25,13.35,14.59,13.35,23,0,5.94-2.89,9.62-7.55,9.62h0A12.22,12.22,0,0,1,52.48,73.85Zm-12.83-23c0,8.28,5.87,18.41,13.09,22.57a11.77,11.77,0,0,0,5.8,1.78h0c4.34,0,7-3.48,7-9.09,0-8.28-5.87-18.4-13.09-22.57a11.77,11.77,0,0,0-5.8-1.78C42.34,41.73,39.65,45.21,39.65,50.82Z"/><ellipse class="cls-4" cx="52.61" cy="58.45" rx="7.89" ry="13.67" transform="translate(-22.31 34.54) rotate(-30.31)"/><path class="cls-3" d="M52.48,69.81c-5.42-3.13-9.83-10.74-9.83-17,0-4.32,2.2-7.12,5.61-7.12a9,9,0,0,1,4.48,1.37c5.42,3.13,9.83,10.73,9.83,16.95,0,4.33-2.2,7.12-5.61,7.12A9.11,9.11,0,0,1,52.48,69.81Zm-9.3-17c0,6,4.29,13.45,9.56,16.5A8.53,8.53,0,0,0,57,70.64c3.13,0,5.08-2.52,5.08-6.59,0-6-4.29-13.45-9.56-16.49a8.55,8.55,0,0,0-4.22-1.3C45.12,46.26,43.18,48.79,43.18,52.85Z"/><ellipse class="cls-5" cx="52.61" cy="58.45" rx="4.39" ry="7.61" transform="translate(-22.31 34.54) rotate(-30.31)"/><path class="cls-3" d="M52.48,64.87A12.2,12.2,0,0,1,47,55.34c0-2.48,1.27-4.08,3.24-4.08a5.18,5.18,0,0,1,2.55.77,12.2,12.2,0,0,1,5.53,9.54c0,2.48-1.27,4.08-3.24,4.08h0A5.1,5.1,0,0,1,52.48,64.87Zm-5-9.53a11.59,11.59,0,0,0,5.26,9.07,4.62,4.62,0,0,0,2.29.71h0c1.67,0,2.71-1.36,2.71-3.55a11.61,11.61,0,0,0-5.26-9.08,4.62,4.62,0,0,0-2.29-.71C48.52,51.78,47.48,53.15,47.48,55.34Z"/><path class="cls-4" d="M4.26,86.78l-2.78-.37a1.41,1.41,0,0,1-.18-2.75L16.88,79.4Z"/><path class="cls-3" d="M4.23,87l-2.78-.37a1.67,1.67,0,0,1-.22-3.27l15.58-4.26a.26.26,0,0,1,.21.48L4.4,87a.33.33,0,0,1-.14,0ZM1.37,83.91a1.15,1.15,0,0,0,.15,2.24l2.69.36L15,80.18Z"/><path class="cls-7" d="M2.24,86.58s0,0,0,0,40.24-23.6,44.65-26.14a14.39,14.39,0,0,1,5.23-2,.11.11,0,0,1,.11,0,.36.36,0,0,1,.16.28.12.12,0,0,1,0,.1,15,15,0,0,1-4.34,3.5C43.66,64.82,3.41,88.41,3.41,88.41s0,0,0,0a.53.53,0,0,1-.55,0A1.71,1.71,0,0,1,2.06,87,.56.56,0,0,1,2.24,86.58Z"/><path class="cls-3" d="M2.7,88.59A2,2,0,0,1,1.79,87a.82.82,0,0,1,.23-.6.32.32,0,0,1,.13-.13c.4-.23,40.29-23.63,44.64-26.14a14.9,14.9,0,0,1,5.32-2,.35.35,0,0,1,.29,0,.64.64,0,0,1,.3.51.41.41,0,0,1-.12.29,15.34,15.34,0,0,1-4.4,3.53C43.84,65,3.94,88.4,3.53,88.64l0,0a.64.64,0,0,1-.31.07A.88.88,0,0,1,2.7,88.59ZM47.92,62.05a15.11,15.11,0,0,0,4.23-3.39,14.55,14.55,0,0,0-5.09,2C42.77,63.09,4,85.85,2.46,86.73l0,.06a.3.3,0,0,0-.09.24A1.46,1.46,0,0,0,3,88.14a.55.55,0,0,0,.21.07.26.26,0,0,0,.13,0h0C4.69,87.35,43.63,64.53,47.92,62.05Z"/><path class="cls-4" d="M4,85.72,16.89,78.3,6.83,77.47a4.35,4.35,0,0,0-3.79,7Z"/><path class="cls-3" d="M3.79,85.88l-1-1.25a4.53,4.53,0,0,1-.5-4.85,4.56,4.56,0,0,1,4.53-2.57L16.91,78a.27.27,0,0,1,.24.21.24.24,0,0,1-.13.28L4.14,86A.37.37,0,0,1,4,86,.28.28,0,0,1,3.79,85.88Zm3-8.14a4.09,4.09,0,0,0-3.57,6.57l.83,1.07,12-6.89Z"/><path class="cls-4" d="M4.82,87.11l.31,1.14a3.64,3.64,0,0,0,6.58,1l6-9.43Z"/><path class="cls-3" d="M4.88,88.32l-.32-1.14a.28.28,0,0,1,.12-.3l12.9-7.31a.26.26,0,0,1,.32.05.27.27,0,0,1,0,.32l-6,9.43a3.83,3.83,0,0,1-3.28,1.81A3.87,3.87,0,0,1,4.88,88.32Zm.24-1.08.27.94a3.35,3.35,0,0,0,3.26,2.47,3.3,3.3,0,0,0,2.83-1.56l5.43-8.54Z"/><path class="cls-4" d="M24.33,94.05,24,93.86h0c.43,0,.61-.32.31-.49l-4.67-2.7h0v1.51l4.13,2.38H24C24.45,94.53,24.63,94.23,24.33,94.05Z"/><path class="cls-3" d="M23.79,94.75a.14.14,0,0,1-.09,0l-4.13-2.38a.19.19,0,0,1-.1-.16V90.67a.18.18,0,0,1,.1-.16.15.15,0,0,1,.18,0l4.68,2.69a.43.43,0,0,1,.23.46.5.5,0,0,1-.2.26.39.39,0,0,1,.2.43.63.63,0,0,1-.63.38l-.22,0Zm-3.94-2.68,4,2.3H24c.19,0,.27-.08.28-.1a.11.11,0,0,0-.05,0L23.9,94a.18.18,0,0,1-.09-.21.19.19,0,0,1,.18-.14c.21,0,.29-.08.3-.1a.11.11,0,0,0-.05,0L19.85,91Z"/><path class="cls-4" d="M29.78,86.84A4.09,4.09,0,0,0,28,86.36c-.22,0-.35-.11-.36-.22h0v1.51h0c0,.11.14.21.36.22a3.82,3.82,0,0,1,1.74.48,1.78,1.78,0,0,1,.76.76,1,1,0,0,0,0-.75C30.76,87.83,30.5,87.25,29.78,86.84Z"/><path class="cls-3" d="M30.54,89.3h0a.19.19,0,0,1-.18-.11,1.5,1.5,0,0,0-.67-.68A3.89,3.89,0,0,0,28,88.05a.53.53,0,0,1-.52-.32.24.24,0,0,1,0-.08V86.14a.19.19,0,0,1,.07-.14.17.17,0,0,1,.15,0,.17.17,0,0,1,.16.17.67.67,0,0,0,.19,0,4.21,4.21,0,0,1,1.83.51,1.46,1.46,0,0,1,.88,1.68,1.19,1.19,0,0,1-.05.83A.18.18,0,0,1,30.54,89.3Zm-2.67-1.66a.54.54,0,0,0,.18,0,4.34,4.34,0,0,1,1.83.5,2.26,2.26,0,0,1,.55.44.79.79,0,0,0,0-.2.15.15,0,0,1,0-.13c.16-.46-.1-.94-.7-1.29A3.75,3.75,0,0,0,28,86.55l-.16,0v1.12Z"/><path class="cls-4" d="M37.16,95.3a.26.26,0,0,1-.1.11l-4.6,2.65v1.51l4.6-2.65a.17.17,0,0,0,.1-.2Z"/><path class="cls-3" d="M32.46,99.76a.16.16,0,0,1-.09,0,.17.17,0,0,1-.09-.16V98.06a.17.17,0,0,1,.09-.16L37,95.25a.22.22,0,0,1,.22-.13.2.2,0,0,1,.17.18v1.39a.36.36,0,0,1-.2.39l-4.59,2.65A.17.17,0,0,1,32.46,99.76Zm.19-1.59v1.07L37,96.75V95.67Z"/><path class="cls-4" d="M27.8,95.37c-.3-.18-.83-.07-.86.17a1.43,1.43,0,0,1-.79,1,4.24,4.24,0,0,1-3.95-.06,1.32,1.32,0,0,1-.72-1h0V97h0A1.32,1.32,0,0,0,22.2,98a4.24,4.24,0,0,0,3.95,0,1.4,1.4,0,0,0,.79-1c0-.24.56-.35.86-.17l4.66,2.69V98.06Z"/><path class="cls-3" d="M32.46,99.76a.16.16,0,0,1-.09,0L27.71,97a.57.57,0,0,0-.27-.06.44.44,0,0,0-.31.09,1.63,1.63,0,0,1-.88,1.16,4.16,4.16,0,0,1-2,.48,4.08,4.08,0,0,1-2.13-.54A1.52,1.52,0,0,1,21.3,97a.07.07,0,0,1,0-.05V95.45a.18.18,0,0,1,.06-.14.19.19,0,0,1,.16,0,.2.2,0,0,1,.16.18,1.16,1.16,0,0,0,.63.9,3.86,3.86,0,0,0,1.93.48,3.75,3.75,0,0,0,1.83-.44,1.28,1.28,0,0,0,.7-.87c0-.25.3-.43.68-.43a.92.92,0,0,1,.45.11l4.67,2.7a.19.19,0,0,1,.09.16v1.51a.19.19,0,0,1-.09.16A.17.17,0,0,1,32.46,99.76Zm-5-3.16a.92.92,0,0,1,.45.11l4.39,2.53V98.17l-4.57-2.64a.57.57,0,0,0-.27-.06.44.44,0,0,0-.31.09,1.6,1.6,0,0,1-.88,1.16,4.16,4.16,0,0,1-2,.48,4.08,4.08,0,0,1-2.13-.54,2.29,2.29,0,0,1-.44-.36v.62a0,0,0,0,1,0,0,1.14,1.14,0,0,0,.63.9,4,4,0,0,0,3.76.05,1.28,1.28,0,0,0,.7-.87C26.78,96.78,27.06,96.6,27.44,96.6Z"/><path class="cls-4" d="M40.59,93.37c-.23.13-.63,0-.66-.14a1.55,1.55,0,0,0-.83-1,4.41,4.41,0,0,0-4.19.08,1.21,1.21,0,0,0-.6,1.41,1,1,0,0,0,0,.76,1.44,1.44,0,0,1,.58-.66,4.44,4.44,0,0,1,4.19-.09,1.59,1.59,0,0,1,.83,1c0,.19.43.28.66.15l4.6-2.66V90.71Z"/><path class="cls-3" d="M40.32,95.13a.55.55,0,0,1-.58-.36,1.34,1.34,0,0,0-.74-.88,3.89,3.89,0,0,0-1.94-.47A3.83,3.83,0,0,0,35,94a1.33,1.33,0,0,0-.51.58.17.17,0,0,1-.17.11h0a.18.18,0,0,1-.17-.11,1.25,1.25,0,0,1,0-.83,1.43,1.43,0,0,1,.7-1.57,4.16,4.16,0,0,1,2.25-.6,4.33,4.33,0,0,1,2.13.51,1.72,1.72,0,0,1,.92,1.14.36.36,0,0,0,.21.06.48.48,0,0,0,.18,0l4.59-2.66a.21.21,0,0,1,.19,0,.19.19,0,0,1,.09.16v1.51a.2.2,0,0,1-.09.17L40.68,95A.69.69,0,0,1,40.32,95.13Zm-3.26-2.08a4.33,4.33,0,0,1,2.13.51,1.72,1.72,0,0,1,.92,1.14.39.39,0,0,0,.21,0,.34.34,0,0,0,.18,0l4.5-2.6V91l-4.32,2.49a.69.69,0,0,1-.36.09.55.55,0,0,1-.58-.36,1.34,1.34,0,0,0-.74-.88,3.89,3.89,0,0,0-1.94-.46,3.83,3.83,0,0,0-2.05.53,1,1,0,0,0-.52,1.2.24.24,0,0,1,0,.12.67.67,0,0,0-.05.19,1.85,1.85,0,0,1,.37-.31A4.16,4.16,0,0,1,37.06,93.05Z"/><path class="cls-7" d="M27.79,86c-.24.13-.09.36.25.38a4.09,4.09,0,0,1,1.74.48c1.17.67,1.13,1.78-.14,2.42a4.77,4.77,0,0,1-3.76,0,1.62,1.62,0,0,1-1-1.08c0-.19-.43-.28-.67-.14l-4.59,2.65,4.67,2.7c.3.17.12.47-.31.49a3.75,3.75,0,0,0-1.83.5,1.16,1.16,0,0,0,0,2.14,4.24,4.24,0,0,0,3.95.06,1.43,1.43,0,0,0,.79-1c0-.24.56-.35.86-.17l4.66,2.69,4.6-2.65c.23-.14.08-.37-.25-.39a3.87,3.87,0,0,1-1.87-.55,1.21,1.21,0,0,1,0-2.17,4.41,4.41,0,0,1,4.19-.08,1.55,1.55,0,0,1,.83,1c0,.19.43.27.66.14l4.6-2.66L32.38,83.32Z"/><path class="cls-3" d="M32.46,98.25a.16.16,0,0,1-.09,0l-4.66-2.69a.57.57,0,0,0-.27-.06.44.44,0,0,0-.31.09,1.6,1.6,0,0,1-.88,1.16,4.16,4.16,0,0,1-2,.48,4.08,4.08,0,0,1-2.13-.54,1.49,1.49,0,0,1-.81-1.24,1.47,1.47,0,0,1,.81-1.22A3.9,3.9,0,0,1,24,93.67a.35.35,0,0,0,.27-.1.11.11,0,0,0-.05,0l-4.67-2.7a.18.18,0,0,1,0-.32l4.59-2.66a.71.71,0,0,1,.36-.09c.31,0,.55.15.58.37a1.45,1.45,0,0,0,.87.94,4.54,4.54,0,0,0,3.59,0c.55-.28.87-.66.88-1a1.25,1.25,0,0,0-.75-1A3.75,3.75,0,0,0,28,86.55a.52.52,0,0,1-.52-.34.35.35,0,0,1,.19-.4l4.6-2.65a.21.21,0,0,1,.19,0l12.8,7.39a.19.19,0,0,1,.09.16.2.2,0,0,1-.09.17l-4.6,2.65a.69.69,0,0,1-.36.09.55.55,0,0,1-.58-.36,1.34,1.34,0,0,0-.74-.88,3.89,3.89,0,0,0-1.94-.46,3.83,3.83,0,0,0-2.05.53,1.15,1.15,0,0,0-.58.92,1.18,1.18,0,0,0,.61.94,3.7,3.7,0,0,0,1.78.53.54.54,0,0,1,.53.34.35.35,0,0,1-.2.39l-4.59,2.65A.17.17,0,0,1,32.46,98.25Zm-5-3.16a.92.92,0,0,1,.45.11l4.57,2.64L37,95.25a.4.4,0,0,0-.16,0,4,4,0,0,1-1.95-.58,1.53,1.53,0,0,1-.78-1.25,1.48,1.48,0,0,1,.75-1.24,4.16,4.16,0,0,1,2.25-.6,4.33,4.33,0,0,1,2.13.51,1.72,1.72,0,0,1,.92,1.14.36.36,0,0,0,.21.06.48.48,0,0,0,.18,0l4.31-2.5L32.38,83.54l-4.49,2.59a.28.28,0,0,0,.16,0,4.21,4.21,0,0,1,1.83.51,1.56,1.56,0,0,1,.93,1.37,1.68,1.68,0,0,1-1.08,1.37,4.44,4.44,0,0,1-1.94.41,4.54,4.54,0,0,1-2-.42,1.82,1.82,0,0,1-1.05-1.22.41.41,0,0,0-.22,0,.31.31,0,0,0-.17,0L20,90.67l4.39,2.53a.43.43,0,0,1,.23.46A.63.63,0,0,1,24,94a3.67,3.67,0,0,0-1.74.47,1,1,0,0,0,0,1.84,3.86,3.86,0,0,0,1.93.48,3.75,3.75,0,0,0,1.83-.44,1.28,1.28,0,0,0,.7-.87C26.78,95.27,27.06,95.09,27.44,95.09Z"/><path class="cls-7" d="M82.6,16.89,57.18,2.05c-2.4-1.38-4.35.09-4.35,3.29v8.08c0,3.2,2,6.92,4.35,8.31L69.92,29l3.33,9.81,3.32-6,6,3.71C85,38,87,36.49,87,33.28V25.21C87,22,85,18.28,82.6,16.89Z"/><path class="cls-3" d="M73.25,39h0a.22.22,0,0,1-.19-.15l-3.31-9.73L57.07,21.92c-2.46-1.42-4.46-5.23-4.46-8.5V5.34c0-2.45,1.12-4,2.84-4a3.74,3.74,0,0,1,1.84.55L82.71,16.7c2.46,1.42,4.46,5.24,4.46,8.5v8.08a5.13,5.13,0,0,1-.77,2.93,2.46,2.46,0,0,1-2.07,1.1h0a3.64,3.64,0,0,1-1.84-.55l-5.83-3.59-3.22,5.76A.21.21,0,0,1,73.25,39ZM55.45,1.75c-1.45,0-2.4,1.41-2.4,3.59v8.08c0,3.13,1.9,6.77,4.24,8.12L70,28.82a.29.29,0,0,1,.1.12l3.17,9.33,3.08-5.52a.26.26,0,0,1,.14-.11.25.25,0,0,1,.17,0l6,3.71a3.28,3.28,0,0,0,1.61.49h0A2.05,2.05,0,0,0,86,36a4.65,4.65,0,0,0,.69-2.67V25.2c0-3.12-1.9-6.76-4.24-8.11L57.07,2.25A3.26,3.26,0,0,0,55.45,1.75Z"/><polygon class="cls-8" points="77.93 33.64 76.58 32.86 73.25 38.82 75.92 37.24 77.93 33.64"/><path class="cls-3" d="M73.25,39a.22.22,0,0,1-.2-.33l3.33-6a.21.21,0,0,1,.14-.1.21.21,0,0,1,.17,0l1.35.78a.21.21,0,0,1,.08.3l-2,3.6a.2.2,0,0,1-.08.08L73.36,39Zm3.41-5.88-2.82,5.05,1.91-1.13,1.88-3.36Z"/><path class="cls-2" d="M84.84,15.58,59.42.74A2.83,2.83,0,0,0,56.71.45l0,0L54.3,1.82v0a2.77,2.77,0,0,1,2.87.2L82.6,16.89C85,18.28,87,22,87,25.21v8.07a4.14,4.14,0,0,1-1.21,3.31l1.32-.87A3.91,3.91,0,0,0,89.19,32V23.89C89.19,20.69,87.24,17,84.84,15.58Z"/><path class="cls-3" d="M85.74,36.81a.21.21,0,0,1-.18-.09.22.22,0,0,1,0-.3,4,4,0,0,0,1.13-3.14V25.21c0-3.13-1.9-6.77-4.24-8.12L57.07,2.25A2.56,2.56,0,0,0,54.43,2a.23.23,0,0,1-.2,0,.2.2,0,0,1-.13-.14.25.25,0,0,1,.09-.28L56.57.23a.22.22,0,0,1,.14,0,3.08,3.08,0,0,1,2.82.35L85,15.39c2.46,1.42,4.46,5.23,4.46,8.5V32a4.15,4.15,0,0,1-2.23,3.94l-1.32.87A.27.27,0,0,1,85.74,36.81ZM55.59,1.32a3.75,3.75,0,0,1,1.7.54L82.71,16.7c2.46,1.42,4.46,5.24,4.46,8.51v8.07a5.55,5.55,0,0,1-.48,2.42l.25-.17A3.69,3.69,0,0,0,89,32V23.89c0-3.13-1.9-6.77-4.24-8.12L59.31.93A2.64,2.64,0,0,0,56.8.65l-.1,0Z"/><ellipse class="cls-1" cx="63.13" cy="15.43" rx="1.73" ry="3" transform="translate(0.84 33.97) rotate(-30.31)"/><path class="cls-3" d="M64.09,18.39A2.11,2.11,0,0,1,63,18.06a4.93,4.93,0,0,1-2.23-3.86c0-1,.54-1.72,1.39-1.72a2.09,2.09,0,0,1,1.07.32,4.93,4.93,0,0,1,2.23,3.86C65.48,17.71,64.94,18.39,64.09,18.39Zm-1.91-5.47c-.6,0-1,.48-1,1.28a4.43,4.43,0,0,0,2,3.48,1.7,1.7,0,0,0,.84.26c.59,0,1-.48,1-1.28a4.43,4.43,0,0,0-2-3.48A1.73,1.73,0,0,0,62.18,12.92Z"/><path class="cls-1" d="M71.92,20.51c0,1.35-1,1.9-2.13,1.22a4.7,4.7,0,0,1-2.13-3.67c0-1.35,1-1.89,2.13-1.21A4.66,4.66,0,0,1,71.92,20.51Z"/><path class="cls-3" d="M70.75,22.24a2.19,2.19,0,0,1-1.07-.32,4.94,4.94,0,0,1-2.24-3.86c0-1,.55-1.73,1.4-1.73a2.18,2.18,0,0,1,1.06.32,5,5,0,0,1,2.24,3.86C72.14,21.56,71.59,22.24,70.75,22.24Zm-1.91-5.46c-.6,0-1,.48-1,1.28a4.44,4.44,0,0,0,2,3.47,1.68,1.68,0,0,0,.85.27c.59,0,1-.48,1-1.29a4.45,4.45,0,0,0-2-3.47A1.76,1.76,0,0,0,68.84,16.78Z"/><path class="cls-1" d="M78.42,24.21c0,1.35-1,1.89-2.13,1.22a4.72,4.72,0,0,1-2.13-3.67c0-1.35,1-1.89,2.13-1.22A4.68,4.68,0,0,1,78.42,24.21Z"/><path class="cls-3" d="M77.25,25.94a2.19,2.19,0,0,1-1.07-.32,5,5,0,0,1-2.24-3.86c0-1.05.55-1.73,1.4-1.73a2.18,2.18,0,0,1,1.06.32,4.93,4.93,0,0,1,2.24,3.86C78.64,25.26,78.09,25.94,77.25,25.94Zm-1.91-5.47c-.6,0-1,.48-1,1.29a4.44,4.44,0,0,0,2,3.47,1.79,1.79,0,0,0,.85.27c.59,0,1-.48,1-1.29a4.45,4.45,0,0,0-2-3.47A1.68,1.68,0,0,0,75.34,20.47Z"/><path class="cls-1" d="M31,16.3l5.8,1.05c1,.17,1.18.92.35,1.25l-4.95,2c-.32.13-.52.35-.51.59l.1,3.5c0,.59-1.14.93-2,.58L25,23.18a2,2,0,0,0-1.13-.1l-5.75,1.11c-1,.19-1.88-.34-1.56-.9L18.48,20a.48.48,0,0,0-.18-.65L14.65,16.5c-.61-.47,0-1.14,1-1.13l6.08.06a1.69,1.69,0,0,0,1-.3l3.49-2.86a1.69,1.69,0,0,1,2.17.2l1.83,3.36A1.14,1.14,0,0,0,31,16.3Z"/><path class="cls-4" d="M36.61,17.66V16l-3,.71-3.25-.59a1,1,0,0,1-.76-.44l-1.7-3.13a1.58,1.58,0,0,0-2-.19L22.61,15a1.51,1.51,0,0,1-.95.28L16,15.25h0L14.8,14.1v1.75l0,0a.49.49,0,0,0,.23.44l3.41,2.63a.45.45,0,0,1,.17.61l-1,1.75-.84-.14v1.63a.43.43,0,0,0,0,.16v0h0c.12.38.8.66,1.5.52l5.38-1a1.88,1.88,0,0,1,1.06.09l4.57,2c.76.33,1.84,0,1.83-.54L31,20.71c0-.22.17-.43.48-.55l4.63-1.89C36.51,18.12,36.66,17.89,36.61,17.66Z"/><path class="cls-3" d="M30,24.85h0a1.91,1.91,0,0,1-.76-.15l-4.57-2a1.65,1.65,0,0,0-.94-.08l-5.38,1a1.57,1.57,0,0,1-1.7-.6.15.15,0,0,1,0-.11.81.81,0,0,1,0-.22v-1.6a.19.19,0,0,1,.07-.14A.21.21,0,0,1,16.8,21l.71.12,1-1.64a.28.28,0,0,0-.13-.36l-3.41-2.63a.75.75,0,0,1-.31-.53.24.24,0,0,1,0-.08V14.1a.2.2,0,0,1,.12-.18.2.2,0,0,1,.21,0l1.1,1.1,5.63,0h0a1.32,1.32,0,0,0,.83-.24l3.27-2.67a1.64,1.64,0,0,1,1-.32,1.42,1.42,0,0,1,1.27.56l1.71,3.14a.85.85,0,0,0,.62.34l3.22.58,2.94-.7a.18.18,0,0,1,.16,0,.21.21,0,0,1,.08.16v1.67c.06.31-.16.61-.6.79l-4.63,1.89c-.23.09-.36.23-.36.36L31.31,24a.65.65,0,0,1-.2.48A1.63,1.63,0,0,1,30,24.85ZM24,22.23a2,2,0,0,1,.77.15l4.56,2a1.51,1.51,0,0,0,.61.12h0a1.29,1.29,0,0,0,.87-.28.25.25,0,0,0,.08-.2l-.09-3.28a.84.84,0,0,1,.61-.73l4.63-1.89c.25-.1.38-.25.35-.39V16.23l-2.74.66H33.6l-3.26-.59a1.24,1.24,0,0,1-.89-.53l-1.7-3.14a1.11,1.11,0,0,0-.94-.37,1.32,1.32,0,0,0-.81.24l-3.27,2.67a1.64,1.64,0,0,1-1.05.32L16,15.44a.27.27,0,0,1-.17-.06L15,14.56v1.23a.18.18,0,0,1,0,.1.32.32,0,0,0,.16.26l3.41,2.64a.65.65,0,0,1,.22.86l-1,1.75a.2.2,0,0,1-.2.09l-.61-.1v1.4a.75.75,0,0,0,0,.12v0c.06.2.44.41.94.41a1.87,1.87,0,0,0,.34,0l5.38-1A1.75,1.75,0,0,1,24,22.23Z"/><path class="cls-7" d="M30.38,14.38l5.43,1c.91.17,1.11.86.33,1.18l-4.63,1.89c-.31.12-.49.33-.48.54l.09,3.29c0,.55-1.07.86-1.83.53l-4.57-2a1.88,1.88,0,0,0-1.06-.1l-5.38,1.05c-.9.17-1.76-.33-1.46-.85l1.81-3.1a.45.45,0,0,0-.17-.61l-3.41-2.64c-.57-.44,0-1.06.93-1.06l5.68.06a1.51,1.51,0,0,0,.95-.28l3.27-2.68a1.61,1.61,0,0,1,2,.19l1.7,3.14A1.07,1.07,0,0,0,30.38,14.38Z"/><path class="cls-3" d="M30,23.12a1.91,1.91,0,0,1-.76-.15l-4.57-2a1.65,1.65,0,0,0-.94-.09L18.32,22a1.68,1.68,0,0,1-1.67-.52.58.58,0,0,1,0-.61l1.81-3.11a.28.28,0,0,0-.13-.36l-3.41-2.63a.67.67,0,0,1-.28-.74A1.32,1.32,0,0,1,16,13.32l5.7,0h0a1.32,1.32,0,0,0,.83-.23l3.27-2.67a1.65,1.65,0,0,1,1-.33,1.42,1.42,0,0,1,1.27.57l1.71,3.14a.85.85,0,0,0,.62.34l5.44,1c.55.1.92.4,1,.77s-.19.61-.6.78L31.58,18.6c-.23.1-.36.24-.36.37l.09,3.28a.63.63,0,0,1-.2.47A1.59,1.59,0,0,1,30,23.12ZM24,20.5a2.15,2.15,0,0,1,.77.14l4.56,2a1.6,1.6,0,0,0,1.48-.16.25.25,0,0,0,.08-.2L30.83,19a.83.83,0,0,1,.61-.73l4.63-1.89c.24-.1.37-.24.36-.38s-.23-.35-.65-.43l-5.44-1a1.22,1.22,0,0,1-.89-.54l-1.7-3.13a1.11,1.11,0,0,0-.94-.37,1.32,1.32,0,0,0-.81.23l-3.27,2.68a1.7,1.7,0,0,1-1.05.32l-5.7,0h0c-.54,0-.89.21-1,.4s0,.21.15.31l3.41,2.64a.63.63,0,0,1,.22.86L17,21a.2.2,0,0,0,0,.23,1.09,1.09,0,0,0,.92.36,1.87,1.87,0,0,0,.34,0l5.38-1A2.6,2.6,0,0,1,24,20.5Z"/><line class="cls-9" x1="9.5" y1="40.14" x2="13.89" y2="45.04"/><line class="cls-9" x1="10.02" y1="45.65" x2="13.38" y2="39.78"/><line class="cls-9" x1="39.6" y1="5.14" x2="39.85" y2="11.71"/><line class="cls-9" x1="36.49" y1="9.72" x2="42.82" y2="7.35"/><line class="cls-9" x1="54.37" y1="93.06" x2="54.62" y2="99.62"/><line class="cls-9" x1="51.26" y1="97.63" x2="57.59" y2="95.26"/></g></g></svg>