<svg xmlns="http://www.w3.org/2000/svg" viewBox="0 0 87.83 113.97"><defs><style>.cls-1{fill:#fdca3e;}.cls-2{fill:#03336e;}.cls-3{fill:#fff;}.cls-4{fill:#b08c2b;}.cls-5{fill:#ffc81b;}</style></defs><g id="Capa_2" data-name="Capa 2"><g id="Layer_1" data-name="Layer 1"><path class="cls-1" d="M55.22,23.07A9.22,9.22,0,0,0,51,15.86a4,4,0,0,0-1.69-.56s0-.07,0-.11c0-5.12-3.62-11.37-8.09-13.94C38.76-.2,36.58,0,35,1L32.46,2.49a3.53,3.53,0,0,0-3.68-.12L25.71,4.18a3.94,3.94,0,0,1,3.53.5,8.88,8.88,0,0,1,.84.57c1.06-3.11,4.1-4,7.69-2,4.46,2.58,8.08,8.83,8.08,14v.11a3.82,3.82,0,0,1,1.69.56,9.2,9.2,0,0,1,4.18,7.21,3.15,3.15,0,0,1-.9,2.44l3-1.72h0A2.8,2.8,0,0,0,55.22,23.07Z"/><path class="cls-2" d="M50.82,27.76a.19.19,0,0,1-.16-.09.2.2,0,0,1,0-.27,3,3,0,0,0,.83-2.3,9,9,0,0,0-4.08-7,3.75,3.75,0,0,0-1.6-.54.2.2,0,0,1-.19-.21v-.06c0-5.09-3.58-11.27-8-13.81a7.13,7.13,0,0,0-3.53-1.08,3.93,3.93,0,0,0-3.87,2.94.21.21,0,0,1-.13.13.2.2,0,0,1-.18,0,7.39,7.39,0,0,0-.83-.55,3.78,3.78,0,0,0-3.34-.5.19.19,0,0,1-.26-.09A.2.2,0,0,1,25.61,4l3.07-1.8a3.7,3.7,0,0,1,3.78.06L34.94.84A5.06,5.06,0,0,1,37.77,0a7.22,7.22,0,0,1,3.6,1.07c4.49,2.59,8.15,8.88,8.19,14a4.35,4.35,0,0,1,1.59.58,9.43,9.43,0,0,1,4.28,7.38A3.08,3.08,0,0,1,54,26l0,0-3,1.72A.17.17,0,0,1,50.82,27.76ZM46.06,17.15a4.5,4.5,0,0,1,1.59.57,9.48,9.48,0,0,1,4.27,7.38,4.1,4.1,0,0,1-.36,1.8l2.16-1.22a.13.13,0,0,1,.06,0A2.68,2.68,0,0,0,55,23.07a9,9,0,0,0-4.08-7,3.89,3.89,0,0,0-1.6-.54.19.19,0,0,1-.19-.2v-.07c0-5.09-3.58-11.27-8-13.81-2.2-1.26-4.36-1.34-6-.23L33.76,2a7.28,7.28,0,0,1,4.11,1.13C42.36,5.7,46,12,46.06,17.15ZM26.85,3.74a5.17,5.17,0,0,1,2.49.76c.2.12.41.26.64.42A4.58,4.58,0,0,1,32,2.5a3.16,3.16,0,0,0-3.1,0Z"/><path class="cls-3" d="M47.54,17.9a3.82,3.82,0,0,0-1.69-.56v-.11c0-5.12-3.62-11.37-8.08-13.95-3.59-2.07-6.63-1.14-7.69,2a8.88,8.88,0,0,0-.84-.57c-2.95-1.7-5.34-.34-5.34,3a11.75,11.75,0,0,0,5.34,9.2l18.3,10.57c2.31,1.33,4.18.26,4.18-2.39A9.2,9.2,0,0,0,47.54,17.9Z"/><path class="cls-2" d="M49.42,28.26h0a4,4,0,0,1-2-.6L29.13,17.09A12,12,0,0,1,23.7,7.72c0-2.42,1.23-4,3.14-4a5.07,5.07,0,0,1,2.5.76c.2.12.41.26.64.42A4.33,4.33,0,0,1,34.14,2a7.49,7.49,0,0,1,3.73,1.14C42.36,5.7,46,12,46.06,17.15a4.5,4.5,0,0,1,1.59.57,9.48,9.48,0,0,1,4.27,7.38,3.61,3.61,0,0,1-.68,2.31A2.25,2.25,0,0,1,49.42,28.26ZM26.84,4.15c-1.68,0-2.73,1.37-2.73,3.57a11.54,11.54,0,0,0,5.23,9L47.65,27.31a3.59,3.59,0,0,0,1.77.55h0a1.89,1.89,0,0,0,1.5-.7,3.28,3.28,0,0,0,.6-2.06,9,9,0,0,0-4.08-7,3.89,3.89,0,0,0-1.6-.54.2.2,0,0,1-.19-.21v-.06c0-5.09-3.58-11.27-8-13.81a7.13,7.13,0,0,0-3.53-1.08,3.93,3.93,0,0,0-3.87,2.94.21.21,0,0,1-.13.13.2.2,0,0,1-.18,0,7.39,7.39,0,0,0-.83-.55A4.62,4.62,0,0,0,26.84,4.15Z"/><path class="cls-4" d="M42.12,35.32,29.71,28.14c-1.29-.74-1.13-2.05.36-2.91h0a5.61,5.61,0,0,1,5-.21l12.41,7.17c1.29.75,1.13,2.06-.36,2.92h0A5.64,5.64,0,0,1,42.12,35.32Z"/><path class="cls-4" d="M25.7,98.76,6.13,87.39c-1.18-.68-1-1.87.33-2.65l17.18-6.61a5.1,5.1,0,0,1,4.6-.19l13.15,7.7c1.18.68,1,1.87-.33,2.66L30.3,98.57A5.13,5.13,0,0,1,25.7,98.76Z"/><path class="cls-4" d="M24.76,97.27l-17.27-10a1.22,1.22,0,0,1-.7-1v-2c0-.45.35.34,1,0l15.16-5.83A4.49,4.49,0,0,1,27,78.18L38.61,85c.34.2.6-.65.69-.38,0,.09,0,2,0,2.1a1.65,1.65,0,0,1-1,1.34L28.82,97.1A4.5,4.5,0,0,1,24.76,97.27Z"/><path class="cls-2" d="M26.53,97.93a3.88,3.88,0,0,1-1.89-.44l-17.27-10a1.47,1.47,0,0,1-.83-1.21v-2c0-.36.24-.38.31-.38a.54.54,0,0,1,.27.09.49.49,0,0,0,.54,0l15.19-5.85A4.94,4.94,0,0,1,27.12,78l11.61,6.8.16-.21c.1-.13.19-.26.36-.26a.3.3,0,0,1,.28.23,11.14,11.14,0,0,1,0,1.89v.28a1.91,1.91,0,0,1-1.12,1.57l-9.45,9A4.81,4.81,0,0,1,26.53,97.93ZM7,84.44v1.8a1,1,0,0,0,.58.78l17.27,10a4.42,4.42,0,0,0,3.81-.16l9.44-9c.61-.36.93-.77.92-1.16V85.12a.51.51,0,0,1-.58.07l-11.61-6.8a4.43,4.43,0,0,0-3.8.17L7.87,84.41A1,1,0,0,1,7,84.44Z"/><path class="cls-1" d="M24.76,95.27l-17.27-10c-1-.6-.91-1.65.29-2.35l15.16-5.83A4.53,4.53,0,0,1,27,76.89L38.61,83.7c1,.6.91,1.64-.3,2.34L28.82,95.1A4.53,4.53,0,0,1,24.76,95.27Z"/><path class="cls-2" d="M26.53,95.92a3.77,3.77,0,0,1-1.89-.44l-17.27-10a1.43,1.43,0,0,1-.83-1.23,1.91,1.91,0,0,1,1.12-1.54l15.19-5.85a4.94,4.94,0,0,1,4.27-.15l11.61,6.8a1.43,1.43,0,0,1,.83,1.23,1.94,1.94,0,0,1-1.12,1.55l-9.45,9A4.9,4.9,0,0,1,26.53,95.92ZM25.24,76.74a4.47,4.47,0,0,0-2.17.54L7.87,83.13A1.43,1.43,0,0,0,7,84.22a1,1,0,0,0,.58.8l17.27,10a4.42,4.42,0,0,0,3.81-.17l9.44-9c.6-.36.92-.76.92-1.15a1,1,0,0,0-.58-.8l-11.61-6.8A3.3,3.3,0,0,0,25.24,76.74Z"/><path class="cls-4" d="M38.09,83.82,26.92,77.14A4.27,4.27,0,0,0,23,77.3l-7.34,2.89a2.29,2.29,0,0,0,.23.16L32.51,90.2a2.82,2.82,0,0,0,.8.3l4.5-4.38C39,85.44,39.09,84.41,38.09,83.82Z"/><path class="cls-1" d="M51.56,95.82,4.6,68.69C2.2,67.3.25,63.58.25,60.38V24.47c0-3.2,2-4.68,4.35-3.29l47,27.13c2.4,1.39,4.34,5.11,4.34,8.31V92.53C55.9,95.73,54,97.21,51.56,95.82Z"/><path class="cls-2" d="M53.28,96.59A3.7,3.7,0,0,1,51.43,96L4.47,68.9C2,67.48,0,63.66,0,60.38V24.47C0,22,1.13,20.41,2.87,20.41A3.8,3.8,0,0,1,4.72,21l47,27.14c2.47,1.42,4.47,5.24,4.47,8.52V92.53C56.15,95,55,96.59,53.28,96.59ZM2.87,20.91C1.43,20.91.5,22.31.5,24.47V60.38c0,3.12,1.9,6.75,4.22,8.09l47,27.13a3.17,3.17,0,0,0,1.6.49c1.44,0,2.37-1.4,2.37-3.56V56.62c0-3.12-1.89-6.74-4.22-8.09L4.47,21.4A3.17,3.17,0,0,0,2.87,20.91Z"/><path class="cls-3" d="M52.12,93.32,5.82,66.57a7.4,7.4,0,0,1-3.13-6.19V24.23a.77.77,0,0,1,1.16-.66l.14.08L50.33,50.43c2.3,1.32,3.13,3.68,3.13,6.19v36a.83.83,0,0,1-1.24.72Z"/><path class="cls-2" d="M52.63,93.74a1.14,1.14,0,0,1-.54-.14l-.07,0L5.69,66.79a7.64,7.64,0,0,1-3.25-6.41V24.23a1,1,0,0,1,1-1,1.07,1.07,0,0,1,.52.14l.13.08L50.46,50.21c2.13,1.23,3.25,3.44,3.25,6.41v36A1.08,1.08,0,0,1,52.63,93.74Zm-49.17-70a.52.52,0,0,0-.52.52V60.38a7.13,7.13,0,0,0,3,6l46.39,26.8a.59.59,0,0,0,.87-.5v-36a6.51,6.51,0,0,0-3-6L3.78,23.81A.68.68,0,0,0,3.46,23.71Z"/><path class="cls-4" d="M54.31,46.88,7.36,19.74a2.93,2.93,0,0,0-2.55-.37c-.09,0-2.83,1.46-2.91,1.51h0a2.86,2.86,0,0,1,2.71.3l47,27.13c2.4,1.39,4.34,5.11,4.34,8.31V92.53c0,2-.76,3.32-1.91,3.7a.65.65,0,0,0,.38-.13l3-1.59a4,4,0,0,0,1.34-3.42V55.18C58.66,52,56.71,48.26,54.31,46.88Z"/><path class="cls-2" d="M54,96.48h0a.27.27,0,0,1-.24-.22.26.26,0,0,1,.17-.27c1.09-.35,1.74-1.65,1.74-3.46V56.62c0-3.12-1.89-6.74-4.22-8.09L4.47,21.4A2.6,2.6,0,0,0,2,21.11.24.24,0,0,1,1.67,21a.24.24,0,0,1,.11-.33s2.82-1.48,2.94-1.53a3.2,3.2,0,0,1,2.76.4l47,27.13c2.46,1.42,4.47,5.25,4.47,8.52V91.09a4.22,4.22,0,0,1-1.45,3.62s-.25.15-2.26,1.23l-.7.38A1,1,0,0,1,54,96.48Zm-50.73-76A3.93,3.93,0,0,1,4.72,21l47,27.14c2.47,1.42,4.47,5.24,4.47,8.52V92.53a5.32,5.32,0,0,1-.59,2.64l1.63-.88a3.83,3.83,0,0,0,1.22-3.2V55.18c0-3.11-1.89-6.74-4.22-8.09L7.23,20A2.74,2.74,0,0,0,4.9,19.6Z"/><path class="cls-1" d="M13.66,53.82l-3.12,3.41a.28.28,0,0,1-.49-.14L6.32,37,22,50.28a.29.29,0,0,1-.13.5l-4.47.92L25.06,65l-3.72,2.11Z"/><path class="cls-2" d="M21.34,67.36a.3.3,0,0,1-.25-.14L13.61,54.3l-2.86,3.13a.59.59,0,0,1-1-.29L6,37a.3.3,0,0,1,.14-.3.29.29,0,0,1,.33,0L22.15,50.06a.56.56,0,0,1,.18.58.54.54,0,0,1-.44.42l-4.07.84L25.3,64.81a.29.29,0,0,1,0,.22.28.28,0,0,1-.13.17l-3.72,2.12A.23.23,0,0,1,21.34,67.36ZM13.66,53.54h0a.26.26,0,0,1,.21.14l7.54,13,3.22-1.84-7.54-13a.29.29,0,0,1,.19-.42l4.47-.92-15-12.8L10.33,57l3.12-3.41A.27.27,0,0,1,13.66,53.54Z"/><path class="cls-4" d="M45.1,104.36,49.72,107l8.36-4.83-4.62-2.66Zm8.37-3.88,3,1.72-6.74,3.89-3-1.72Zm-2.35,7.36,4.61,2.66L70.39,102l-4.62-2.66Zm14.66-7.52,3,1.72-13,7.52-3-1.72Zm12.3-1.1L57.13,111.31,61.75,114l21-12.09ZM61.74,113l-3-1.72,19.33-11.15,3,1.72Z"/><path class="cls-4" d="M58.32,19.78a5.45,5.45,0,0,0,1.77.61,20.84,20.84,0,0,1,4.37,1.19l-3,1.72L64.37,25l1.34-.77,8.41,4.86a8.25,8.25,0,0,0,3.56,1l2.61.15a1.51,1.51,0,0,1,.38.08l1.65.59a1.55,1.55,0,0,0,.47.08c.64,0,1.17-.42.78-.79l-1.1-1.08a.4.4,0,0,1-.12-.22l-.21-1.37a3.05,3.05,0,0,0-1.69-2.1l-8.38-4.84,1.34-.77-2.89-1.67-2.94,1.7a8.83,8.83,0,0,1-2.12-2.56,3.28,3.28,0,0,0-1.86-1.34,7.06,7.06,0,0,0-4.45,0C56.69,16.79,56.41,18.68,58.32,19.78Zm8.48,3.89,4.37-2.52L80,26.22a2.25,2.25,0,0,1,1.21,1.38l.2,1.37a1.27,1.27,0,0,0,.2.53L81,29.31a2.43,2.43,0,0,0-.66-.14L77.74,29a7,7,0,0,1-3.12-.84Z"/><path class="cls-4" d="M87.53,81.15H63v1.33h0s0,.88,0,.91c0,3.94,5.49,7.13,12.25,7.13s12.25-3.19,12.25-7.13v-.91h0Z"/><path class="cls-2" d="M75.28,90.82c-6.91,0-12.54-3.33-12.54-7.43V81.15a.29.29,0,0,1,.29-.29h24.5a.3.3,0,0,1,.3.29v1.33s0,0,0,0c0,.19,0,.83,0,.86C87.83,87.49,82.2,90.82,75.28,90.82Zm-12-8.39v1c0,3.77,5.36,6.84,12,6.84s12-3.07,12-6.84c0,0,0-.86,0-.9a.13.13,0,0,1,0-.06v-1H63.33Z"/><ellipse class="cls-1" cx="75.28" cy="81.2" rx="12.25" ry="7.13"/><path class="cls-2" d="M75.28,88.63c-6.91,0-12.54-3.33-12.54-7.43s5.63-7.42,12.54-7.42,12.55,3.33,12.55,7.42S82.2,88.63,75.28,88.63Zm0-14.27c-6.59,0-12,3.07-12,6.84S68.69,88,75.28,88s12-3.07,12-6.84S81.87,74.36,75.28,74.36Z"/><path class="cls-3" d="M85.13,79.72v-1.4a13.24,13.24,0,0,0-7-11.67l-1-.53a.64.64,0,0,1,0-1.11l1.66-1a13.22,13.22,0,0,0,6.37-11.31v-4H65.44v3.91A13.21,13.21,0,0,0,71.94,64l1.69,1a.64.64,0,0,1,0,1.12l-1,.53a13.21,13.21,0,0,0-7.14,11.74v1.29c-.16,1.57.8,3.17,2.88,4.37a15.42,15.42,0,0,0,14,0C84.34,82.86,85.28,81.28,85.13,79.72Z"/><path class="cls-2" d="M75.35,86h0a14.56,14.56,0,0,1-7.16-1.72c-2.1-1.21-3.21-2.91-3-4.66V78.36a13.47,13.47,0,0,1,7.3-12l1-.53a.33.33,0,0,0,.19-.3.35.35,0,0,0-.17-.31l-1.69-1a13.58,13.58,0,0,1-6.65-11.65V48.67a.29.29,0,0,1,.3-.29H85.13a.29.29,0,0,1,.29.29v4a13.61,13.61,0,0,1-6.5,11.56l-1.67,1a.33.33,0,0,0-.17.31.34.34,0,0,0,.18.29l1,.53a13.49,13.49,0,0,1,7.16,11.93v1.4c.17,1.71-.92,3.39-3,4.59A14.42,14.42,0,0,1,75.35,86ZM65.73,49v3.61a13,13,0,0,0,6.36,11.14l1.69,1a.9.9,0,0,1,.46.83.93.93,0,0,1-.5.8l-1,.53a12.89,12.89,0,0,0-7,11.48v1.29c-.15,1.54.85,3,2.74,4.12a14,14,0,0,0,6.87,1.64h0a13.75,13.75,0,0,0,6.79-1.62c1.86-1.07,2.84-2.54,2.7-4V78.32A12.89,12.89,0,0,0,78,66.91l-1-.53a.94.94,0,0,1,0-1.63l1.67-1a13,13,0,0,0,6.22-11.05V49Z"/><path class="cls-5" d="M85.13,80.87V79.3c0-4.21-2.77-4-6.28-5.28a3.42,3.42,0,0,1-2.25-2.9c-.22-2.14-.54-4.22-.55-4.59a1.57,1.57,0,0,1,.75-1.38L78.72,64a3.58,3.58,0,0,0,1.86-2.53c0-1.68-2.34-3-5.23-3s-5.23,1.36-5.23,3c0,1,1.07,2.08,2.11,2.69l1.7.95a1.58,1.58,0,0,1,.77,1.39c0,.37-.35,2.45-.58,4.6A3.44,3.44,0,0,1,71.84,74c-3.59,1.25-6.4,1.1-6.4,5.38v1.48c-.14,1.42.85,2.85,2.71,3.93a14.75,14.75,0,0,0,7.21,1.71h0a14.44,14.44,0,0,0,7.12-1.69c1.83-1,2.8-2.46,2.66-3.87Z"/><path class="cls-2" d="M75.35,86.77h0A15,15,0,0,1,68,85c-2-1.13-3-2.67-2.86-4.21V79.35c0-3.72,2.09-4.32,4.73-5.08.6-.17,1.22-.35,1.88-.58a3.13,3.13,0,0,0,2.07-2.63c.13-1.2.29-2.37.42-3.25.09-.66.16-1.18.16-1.33a1.3,1.3,0,0,0-.62-1.13l-1.69-.95c-1.09-.64-2.26-1.83-2.26-2.94,0-1.87,2.42-3.34,5.52-3.34s5.53,1.47,5.53,3.34a3.86,3.86,0,0,1-2,2.79L77,65.4a1.24,1.24,0,0,0-.61,1.12c0,.15.07.66.15,1.3.11.88.27,2.06.39,3.27A3.16,3.16,0,0,0,79,73.74c.65.23,1.27.41,1.87.58,2.57.75,4.6,1.34,4.6,5v1.57c.15,1.54-.87,3-2.8,4.17A14.83,14.83,0,0,1,75.35,86.77Zm0-28.06c-2.67,0-4.93,1.26-4.93,2.75,0,.84,1,1.86,2,2.43l1.69,1A1.86,1.86,0,0,1,75,66.5c0,.18-.07.66-.17,1.39s-.28,2-.41,3.23a3.77,3.77,0,0,1-2.47,3.13c-.67.23-1.3.42-1.91.59-2.59.75-4.3,1.24-4.3,4.51v1.44c-.13,1.37.8,2.7,2.56,3.71a14.37,14.37,0,0,0,7.06,1.68v0a14.2,14.2,0,0,0,7-1.65c1.73-1,2.64-2.3,2.52-3.59V79.3c0-3.2-1.66-3.68-4.18-4.41-.6-.18-1.23-.36-1.9-.59a3.76,3.76,0,0,1-2.45-3.15c-.12-1.2-.27-2.38-.38-3.25s-.16-1.19-.16-1.36a1.87,1.87,0,0,1,.89-1.65s1.17-.69,1.91-1.15,1.73-1.44,1.73-2.28C80.29,60,78,58.71,75.35,58.71Z"/><path class="cls-3" d="M87.53,46.32H63v1.33h0s0,.88,0,.91c0,3.94,5.49,7.13,12.25,7.13s12.25-3.19,12.25-7.13v-.91h0Z"/><path class="cls-2" d="M75.28,56c-6.91,0-12.54-3.34-12.54-7.43V46.32A.29.29,0,0,1,63,46h24.5a.3.3,0,0,1,.3.29v1.37c0,.2,0,.84,0,.87C87.83,52.65,82.2,56,75.28,56Zm-12-8.39v1c0,3.77,5.36,6.84,12,6.84s12-3.07,12-6.84c0,0,0-.86,0-.91a.11.11,0,0,1,0,0v-1H63.33Z"/><ellipse class="cls-1" cx="75.28" cy="46.37" rx="12.25" ry="7.13"/><path class="cls-2" d="M75.28,53.8c-6.91,0-12.54-3.33-12.54-7.43s5.63-7.43,12.54-7.43,12.55,3.33,12.55,7.43S82.2,53.8,75.28,53.8Zm0-14.27c-6.59,0-12,3.07-12,6.84s5.36,6.84,12,6.84,12-3.07,12-6.84S81.87,39.53,75.28,39.53Z"/></g></g></svg>