<svg xmlns="http://www.w3.org/2000/svg" viewBox="0 0 111.69 118.12">
  <defs>
    <style>.cls-1{fill:#b9daff;}.cls-2{fill:#fff;}.cls-3{fill:#03336e;}.cls-4{fill:#d0e7ff;}.cls-5{fill:#d1ebff;}</style>
  </defs>
  <g id="Capa_2" data-name="Capa 2">
    <g id="Layer_1" data-name="Layer 1">
      <path class="cls-1" d="M96.65,47.68c0,2.87-1,4.9-2.6,5.89l-2.8,1.73c-1.68.94-.61-1.19-3.15-2.66-5.12-3-9.27-10.12-9.27-16,0-2.91-2.69-2.93-1-3.9L80.9,31c1.68-.91,4-.74,6.48.71C92.5,34.64,96.65,41.8,96.65,47.68Z"/>
      <path class="cls-1" d="M90.6,55.78c-.48,0-.65-.41-.84-.85A3.9,3.9,0,0,0,88,52.86c-5.18-3-9.4-10.27-9.4-16.21a3.3,3.3,0,0,0-1.09-2.53c-.28-.3-.52-.55-.48-.87s.23-.47.65-.71l3.13-1.79c1.8-1,4.21-.72,6.71.72,5.18,3,9.4,10.26,9.4,16.21,0,2.86-1,5-2.72,6.1l-.48.29-2.33,1.45A1.74,1.74,0,0,1,90.6,55.78ZM83.22,30.66a4.59,4.59,0,0,0-2.2.53L77.91,33c-.36.22-.41.33-.41.36s.18.28.34.46a3.77,3.77,0,0,1,1.23,2.87c0,5.79,4.11,12.87,9.15,15.78a4.38,4.38,0,0,1,2,2.31c.19.43.26.54.39.54a1.21,1.21,0,0,0,.53-.2l2.31-1.43.48-.29c1.6-1,2.48-3,2.48-5.68,0-5.79-4.1-12.87-9.15-15.78A8.07,8.07,0,0,0,83.22,30.66Z"/>
      <ellipse class="cls-2" cx="84.34" cy="44.13" rx="7.55" ry="13.07" transform="translate(-10.74 48.6) rotate(-30.31)"/>
      <path class="cls-3" d="M88.51,56.29A8.7,8.7,0,0,1,84.22,55c-5.18-3-9.4-10.27-9.4-16.21,0-4.14,2.11-6.81,5.36-6.81a8.65,8.65,0,0,1,4.29,1.31c5.18,3,9.39,10.26,9.39,16.21C93.86,53.62,91.76,56.29,88.51,56.29ZM80.18,32.47c-3,0-4.86,2.41-4.86,6.31,0,5.79,4.1,12.87,9.15,15.78a8.18,8.18,0,0,0,4,1.24c3,0,4.86-2.42,4.86-6.31,0-5.79-4.1-12.87-9.15-15.78A8.11,8.11,0,0,0,80.18,32.47Z"/>
      <path class="cls-3" d="M82.69,40.32c0,.83-.59,1.16-1.31.74a2.85,2.85,0,0,1-1.3-2.24c0-.83.58-1.16,1.3-.75A2.9,2.9,0,0,1,82.69,40.32Z"/>
      <path class="cls-3" d="M88,43.36c0,.83-.59,1.16-1.31.75a2.87,2.87,0,0,1-1.3-2.25c0-.83.58-1.16,1.3-.74A2.86,2.86,0,0,1,88,43.36Z"/>
      <path class="cls-3" d="M79.09,43.72l1.22.21A8.84,8.84,0,0,0,84,49.1c1.62.94,3.11.63,3.69-.77l1.21,1.23c-.78,1.85-2.75,2.26-4.9,1A11.74,11.74,0,0,1,79.09,43.72Z"/>
      <ellipse class="cls-4" style="fill:#0c54c0" cx="44.21" cy="102.33" rx="31.4" ry="11.17"/>
      <path class="cls-3" d="M24.52,97.65l-3-3.24-5.93,5.53c-.52.48-.27,1.6.56,2.5s1.94,1.22,2.46.74Z"/>
      <path class="cls-3" d="M49.39,103.16l-4,1.84,3.36,7.38c.3.65,1.44.76,2.55.25s1.78-1.44,1.49-2.09C52.74,110.54,49.39,103.16,49.39,103.16Z"/>
      <path class="cls-1" d="M66,84.34C66,68,54.43,48.16,40.22,40c-6.86-4-13.08-4.48-17.7-2.13L7,45.83,8.82,49a26.08,26.08,0,0,0-1.33,8.63C7.49,74,19,93.82,33.23,102a26.33,26.33,0,0,0,8.34,3.23l1.89,3.24,14.22-7.24C62.77,98.8,66,92.92,66,84.34Z"/>
      <path class="cls-1" d="M43.46,108.88a.37.37,0,0,1-.32-.19l-1.81-3.09A27.19,27.19,0,0,1,33,102.36C18.75,94.1,7.12,74,7.12,57.64a26.55,26.55,0,0,1,1.29-8.59L6.65,46a.39.39,0,0,1,0-.3.38.38,0,0,1,.19-.22l15.55-8A13.8,13.8,0,0,1,28.67,36,23.72,23.72,0,0,1,40.4,39.63c14.3,8.25,25.93,28.31,25.93,44.71,0,8.36-3.09,14.65-8.49,17.26l-14.21,7.24A.33.33,0,0,1,43.46,108.88ZM7.5,46l1.65,2.84a.44.44,0,0,1,0,.32,25.63,25.63,0,0,0-1.31,8.5c0,16.16,11.46,35.93,25.55,44.07a26.31,26.31,0,0,0,8.22,3.18.4.4,0,0,1,.26.18L43.61,108l13.9-7.08c5.13-2.48,8.07-8.53,8.07-16.59,0-16.16-11.46-35.93-25.55-44.07a23,23,0,0,0-11.36-3.48,13,13,0,0,0-6,1.37Z"/>
      <ellipse class="cls-2" cx="26.1" cy="76.66" rx="20.94" ry="36.27" transform="translate(-35.12 23.65) rotate(-30.31)"/>
      <path class="cls-3" d="M37.65,110.08a23.7,23.7,0,0,1-11.74-3.58C11.62,98.25,0,78.2,0,61.8,0,50.35,5.58,43.23,14.55,43.23a23.81,23.81,0,0,1,11.74,3.58c14.28,8.25,25.91,28.3,25.91,44.7C52.2,103,46.62,110.08,37.65,110.08ZM14.55,44C6,44,.75,50.81.75,61.8.75,78,12.2,97.72,26.29,105.85a23,23,0,0,0,11.36,3.48c8.51,0,13.8-6.83,13.8-17.82,0-16.16-11.46-35.92-25.54-44.05A23,23,0,0,0,14.55,44Z"/>
      <path class="cls-3" d="M35.34,103.47a19.14,19.14,0,0,1-9.43-2.87C14.46,94,5.14,77.92,5.14,64.77c0-9.21,4.49-14.93,11.72-14.93a19.06,19.06,0,0,1,9.43,2.88C37.74,59.33,47.05,75.4,47.05,88.54,47.05,97.75,42.56,103.47,35.34,103.47ZM16.86,50.59c-6.76,0-11,5.44-11,14.18C5.89,77.68,15,93.45,26.29,100a18.31,18.31,0,0,0,9.05,2.77c6.76,0,11-5.43,11-14.18,0-12.9-9.14-28.68-20.39-35.17A18.22,18.22,0,0,0,16.86,50.59Z"/>
      <path class="cls-3" d="M25.82,79l-.21,0a1.32,1.32,0,0,1-.66-.2,2.91,2.91,0,0,1-1.34-2.31,1,1,0,0,1,.62-1V58.7l1.71,1V76.3a2.84,2.84,0,0,1,.62,1.64.88.88,0,0,1,0,.17L41.33,96.45l-.69,1Z"/>
      <path class="cls-3" d="M25.68,77.59c0,.38-.26.54-.6.34a1.32,1.32,0,0,1-.6-1c0-.38.27-.54.6-.34A1.29,1.29,0,0,1,25.68,77.59Z"/>
      <path class="cls-2" d="M60.88,46.82c-6.15-6.39-15.18-7.68-20.17-2.88l-.76.67c-5,4.8-3.33,12.74,2.81,19.14s14.47,8.81,19.46,4c.13-.13.52-.45.75-.68C68,62.28,67,53.21,60.88,46.82Z"/>
      <path class="cls-3" d="M55.76,70.66h0c-4.29,0-9.25-2.49-13.26-6.65-6.57-6.84-7.72-14.93-2.79-19.67.13-.13.32-.29.48-.43l.27-.24a11.12,11.12,0,0,1,7.91-3,18.15,18.15,0,0,1,12.79,5.9c6.28,6.53,7.22,15.86,2.08,20.79-.13.14-.32.3-.48.44l-.27.24A9.51,9.51,0,0,1,55.76,70.66Zm-7.4-29.25A10.41,10.41,0,0,0,41,44.21l-.3.26-.46.41C35.6,49.32,36.76,57,43,63.49c3.87,4,8.62,6.42,12.71,6.42h0A8.63,8.63,0,0,0,62,67.49l.3-.27c.15-.13.32-.28.45-.41,4.84-4.65,3.89-13.5-2.1-19.73A17.41,17.41,0,0,0,48.36,41.41Z"/>
      <path class="cls-2" d="M12.77,25.53C4.38,28-.69,35.74,1.26,42.9c1.53,4.06,9,3.38,17.39.88s14.58-5.86,13.54-10.07C29.75,26.69,21.16,23,12.77,25.53Z"/>
      <path class="cls-3" d="M7.52,46.18h0C3.92,46.18,1.7,45.12.91,43c-2-7.48,3.13-15.31,11.75-17.87a19.16,19.16,0,0,1,5.44-.8c6.72,0,12.53,3.7,14.45,9.22,1,4-3.66,7.54-13.79,10.55A41.52,41.52,0,0,1,7.52,46.18ZM18.1,25.12a18.62,18.62,0,0,0-5.22.76C4.65,28.33-.29,35.76,1.62,42.81c.66,1.72,2.64,2.62,5.9,2.62a40.74,40.74,0,0,0,11-2c6.66-2,14.37-5.25,13.29-9.62C30,28.62,24.5,25.12,18.1,25.12Z"/>
      <path class="cls-3" d="M60.57,46.22h0a2.22,2.22,0,0,0-3.14-.12l-1.55,1.44c-.52.48-.28,1.6.55,2.5s1.93,1.24,2.46.76l1.56-1.45A2.22,2.22,0,0,0,60.57,46.22Z"/>
      <path class="cls-3" d="M11.53,23h0A2,2,0,0,0,10,25.5l.52,1.79c.17.61,1.18.49,2.31.17s1.94-.74,1.76-1.34l-.52-1.8A2,2,0,0,0,11.53,23Z"/>
      <path class="cls-5" d="M29.11,95.2c-9.83-5.67-17.8-19.43-17.8-30.71,0-4.59,1.33-8,3.55-10.16C11,55.88,8.62,60,8.62,66.25c0,11.28,8,25,17.8,30.71,5.85,3.38,11,3.12,14.26,0C37.57,98.23,33.53,97.76,29.11,95.2Z"/>
      <polygon class="cls-1" points="12.1 83.98 26.3 75.93 26.13 75.64 29.17 73.91 30.08 75.48 27.04 77.21 26.88 76.92 12.68 84.97 12.1 83.98"/>
      <path class="cls-1" d="M104.54,65.9l-17.36,10-2.12,5.4,9.27-1.27,17.36-10ZM89.11,76l11.27-6.5,5.14,3-11.26,6.5ZM88,76.61l.13-.07,4.68,2.71L89,79.77l-1.82-1Z"/>
      <path class="cls-1" d="M109.63,117.4c1.67-1,1.67-2.52,0-3.47L96,106a9.27,9.27,0,0,0-8.38,0c-2.32,1.34-2.33,3.51,0,4.84l12.2,7a1,1,0,0,0,.93,0,.28.28,0,0,0,0-.53l-12.21-7c-1.79-1-1.78-2.72,0-3.77a7.25,7.25,0,0,1,6.53,0l13.66,7.89a1.27,1.27,0,0,1,0,2.4,4.62,4.62,0,0,1-4.16,0l-13.08-7.55a.57.57,0,0,1,0-1.08,2.11,2.11,0,0,1,1.88,0l10.89,6.3a.06.06,0,0,1,0,.12.26.26,0,0,1-.21,0L96,110a1,1,0,0,0-.93,0,.29.29,0,0,0,0,.54l8,4.63a2.29,2.29,0,0,0,2.07,0c.57-.33.58-.86,0-1.19l-10.9-6.29a4.14,4.14,0,0,0-3.74,0c-1,.6-1,1.57,0,2.16l13.08,7.55A6.63,6.63,0,0,0,109.63,117.4Z"/>
      <path class="cls-1" d="M68.07,12l11.3,2c1.9.34,2.3,1.79.69,2.44l-9.64,3.93c-.64.26-1,.69-1,1.14l.19,6.83c0,1.14-2.22,1.8-3.81,1.11l-9.5-4.1a3.87,3.87,0,0,0-2.2-.2L42.92,27.34c-1.88.36-3.67-.67-3-1.75l3.76-6.46a.94.94,0,0,0-.35-1.27l-7.11-5.49c-1.19-.91,0-2.21,1.94-2.2l11.82.11a3.15,3.15,0,0,0,2-.58l6.8-5.56c1.13-.93,3.64-.7,4.23.4l3.54,6.52A2.19,2.19,0,0,0,68.07,12Z"/>
      <path class="cls-5" d="M78.93,14.64V11.37l-5.81,1.39-6.33-1.14a2.09,2.09,0,0,1-1.47-.85L62,4.66c-.56-1-2.9-1.24-4-.37l-6.36,5.2a3,3,0,0,1-1.85.55L38.77,9.93h-.06L36.47,7.7v3.41l0,0A.94.94,0,0,0,37,12l6.64,5.13a.88.88,0,0,1,.33,1.19l-2,3.4-1.64-.26v3.17a.81.81,0,0,0,0,.31V25h0c.22.74,1.55,1.28,2.93,1l10.46-2a3.74,3.74,0,0,1,2.06.19L64.67,28c1.48.64,3.59,0,3.56-1l-.17-6.39c0-.43.33-.83.93-1.07l9-3.67C78.72,15.53,79,15.07,78.93,14.64Z"/>
      <path class="cls-3" d="M66,28.63h0a3.59,3.59,0,0,1-1.48-.3L55.63,24.5a3.34,3.34,0,0,0-1.84-.17l-10.46,2c-1.43.28-3-.27-3.32-1.16a.38.38,0,0,1-.07-.21.94.94,0,0,1,0-.44v-3.1a.39.39,0,0,1,.13-.29.38.38,0,0,1,.3-.08l1.39.22,1.85-3.18c.17-.29,0-.54-.24-.7l-6.64-5.13a1.36,1.36,0,0,1-.6-1,.42.42,0,0,1,0-.15V7.7a.38.38,0,0,1,.64-.27l2.13,2.13,11,.1h0a2.59,2.59,0,0,0,1.61-.46L57.8,4a3.26,3.26,0,0,1,2-.63,2.81,2.81,0,0,1,2.49,1.11l3.32,6.11a1.75,1.75,0,0,0,1.21.66l6.25,1.13L78.84,11a.34.34,0,0,1,.32.07.37.37,0,0,1,.14.29v3.27c.12.59-.31,1.18-1.15,1.53l-9,3.67c-.45.18-.72.45-.71.71l.18,6.39a1.31,1.31,0,0,1-.39.92A3.2,3.2,0,0,1,66,28.63ZM54.43,23.52a3.82,3.82,0,0,1,1.5.29l8.88,3.84a3,3,0,0,0,1.19.23h0a2.47,2.47,0,0,0,1.68-.55.52.52,0,0,0,.18-.37l-.18-6.39a1.6,1.6,0,0,1,1.17-1.43l9-3.67c.49-.2.75-.48.7-.76V11.85l-5.34,1.28h-.16L66.73,12A2.38,2.38,0,0,1,65,10.94l-3.32-6.1a2.15,2.15,0,0,0-1.83-.72,2.5,2.5,0,0,0-1.56.46l-6.36,5.2a3.3,3.3,0,0,1-2.06.63l-11.1-.1a.52.52,0,0,1-.32-.11l-1.6-1.6V11a.33.33,0,0,1,0,.19.65.65,0,0,0,.31.52l6.64,5.13a1.24,1.24,0,0,1,.43,1.67l-2,3.4a.34.34,0,0,1-.38.18l-1.2-.19v2.73a.63.63,0,0,0,0,.23v0c.12.39.86.81,1.85.81a3.47,3.47,0,0,0,.64-.06l10.47-2A5,5,0,0,1,54.43,23.52Z"/>
      <path class="cls-2" d="M66.79,8.24l10.58,1.92c1.77.32,2.15,1.67.64,2.29l-9,3.67c-.6.24-.95.64-.93,1.07l.17,6.38c0,1.07-2.08,1.69-3.56,1.05l-8.89-3.84a3.65,3.65,0,0,0-2.06-.19l-10.46,2C41.5,23,39.82,22,40.41,21l3.52-6a.88.88,0,0,0-.33-1.19L37,8.62c-1.12-.86-.05-2.08,1.81-2.06l11.06.1a2.93,2.93,0,0,0,1.85-.54L58,.92c1.06-.87,3.4-.66,4,.37l3.32,6.1A2,2,0,0,0,66.79,8.24Z"/>
      <path class="cls-3" d="M66,25.25A3.76,3.76,0,0,1,64.52,25l-8.89-3.83A3.24,3.24,0,0,0,53.79,21L43.33,23a3.22,3.22,0,0,1-3.25-1,1.13,1.13,0,0,1,0-1.19l3.52-6a.52.52,0,0,0-.24-.7L36.73,8.92a1.28,1.28,0,0,1-.54-1.44,2.56,2.56,0,0,1,2.54-1.29l11.1.1h0a2.66,2.66,0,0,0,1.61-.46L57.8.63a3.26,3.26,0,0,1,2-.63,2.78,2.78,0,0,1,2.49,1.11l3.32,6.1a1.72,1.72,0,0,0,1.21.67L77.43,9.79c1.09.2,1.81.77,1.89,1.5s-.38,1.18-1.17,1.5l-9,3.67c-.44.19-.71.46-.7.72l.18,6.38a1.28,1.28,0,0,1-.39.92A3.15,3.15,0,0,1,66,25.25Zm-11.57-5.1a3.82,3.82,0,0,1,1.5.29l8.88,3.83A3,3,0,0,0,67.68,24a.54.54,0,0,0,.18-.38l-.18-6.38a1.6,1.6,0,0,1,1.17-1.43l9-3.67c.47-.19.74-.47.71-.74s-.44-.68-1.27-.83L66.72,8.61a2.4,2.4,0,0,1-1.73-1l-3.32-6.1A2.13,2.13,0,0,0,59.84.75a2.5,2.5,0,0,0-1.56.46l-6.36,5.2A3.3,3.3,0,0,1,49.86,7l-11.1-.1h0c-1,0-1.73.4-1.86.78-.07.2,0,.4.29.6l6.64,5.13a1.27,1.27,0,0,1,.43,1.68l-3.52,6a.41.41,0,0,0,0,.44,2.16,2.16,0,0,0,1.8.71,2.81,2.81,0,0,0,.65-.07l10.47-2A4,4,0,0,1,54.43,20.15Z"/>
    </g>
  </g>
</svg>