<svg xmlns="http://www.w3.org/2000/svg" viewBox="0 0 101.49 100.37"><defs><style>.cls-1{fill:#c981f3;}</style></defs><g id="Capa_2" data-name="Capa 2"><g id="Capa_1-2" data-name="Capa 1"><path class="cls-1" d="M50.74,85.13C22.72,85.13,0,75.23,0,63V78.26c0,12.21,22.72,22.11,50.74,22.11s50.75-9.9,50.75-22.11V63C101.49,75.23,78.77,85.13,50.74,85.13Z"/><path class="cls-1" d="M101.43,35.22c-1.31,11.71-23.5,21-50.69,21C22.72,56.24,0,46.34,0,34.13v16C0,62.32,22.72,72.22,50.74,72.22s50.75-9.9,50.75-22.12a9.82,9.82,0,0,0-.06-1.09Z"/><ellipse class="cls-1" cx="50.74" cy="22.12" rx="50.74" ry="22.12"/></g></g></svg>