<svg xmlns="http://www.w3.org/2000/svg" viewBox="0 0 646.53 562.75"><defs><style>.cls-1{fill:#005ef8;}.cls-2{fill:#ffb6aa;}.cls-3{fill:#d87594;}.cls-4{fill:#0c0c0c;}</style></defs><g id="Capa_2" data-name="Capa 2"><g id="Capa_1-2" data-name="Capa 1"><path class="cls-1" d="M71,562.75h474.3c46.91-18.23,79.85-37.71,101.26-55.15,0,0-10.34-37.66-43.14-75C597.94,426.44,498.75,324,405.47,305.5s-100.76,14.44-100.76,14.44-131.54,15.79-220,77.36C12.64,447.46-6.07,526.75,1.59,532.88,4,534.81,29.15,548.14,71,562.75Z"/><path class="cls-2" d="M405.47,234.53a189.44,189.44,0,0,1-51.84,85.41c-24.05,22.44-54.53,37.81-87.31,45.6-8.45,29.74-25,38.15-48.13,59.34,0,0-12.7,8.91,9.09,11.69,18,2.29,122.13-6.54,177.92-22.08,31.46-8.76,43.73-38.94,24.95-73.1C417.49,318.37,413,311.38,405.47,234.53Z"/><path class="cls-3" d="M405.47,234.53c-41.2,9.2-23.58-15.7-29.71-13.4-16,6-100.49-11.8-96.6,49.23,0,0,1,46.53-12.84,95.18,32.78-7.79,63.26-23.16,87.31-45.6C373.86,300.55,393.38,273.6,405.47,234.53Z"/><path class="cls-2" d="M284.36,61.27s-89.86,11.12-77.92,107.8c13,105.19,74,138.23,124.67,136.36,46.52-1.72,83.39-58.44,83.26-128.57C414.27,128.74,383.06,45.69,284.36,61.27Z"/><path class="cls-4" d="M177.87,59.36c4,19.31-35.07,48.67-19.49,70.74s66.24,60.5,100,52.33,55.07-48.85,63.25-61,23.77-8.23,25.07,6.06,11.68,48.45,19.48,56-10.39-36.56,0-43.06,31.17,6.5,33.76,35.07,11.54,35,11.54,35,46.9-42.83,43-97.38-74-76.62-83.12-80.52S364.88,5.43,342.8,1.53,164.88-3.6,177.87,59.36Z"/></g></g></svg>